<svg width="1061" height="1061" viewBox="0 0 1061 1061" fill="none" xmlns="http://www.w3.org/2000/svg">
<path fill-rule="evenodd" clip-rule="evenodd" d="M530.502 74.2704C278.534 74.2704 74.2724 278.532 74.2724 530.5C74.2724 782.469 278.534 986.73 530.502 986.73C782.471 986.73 986.732 782.469 986.732 530.5C986.732 278.532 782.471 74.2704 530.502 74.2704ZM3.53906 530.5C3.53906 239.467 239.469 3.53711 530.502 3.53711C821.536 3.53711 1057.47 239.467 1057.47 530.5C1057.47 821.534 821.536 1057.46 530.502 1057.46C239.469 1057.46 3.53906 821.534 3.53906 530.5Z" fill="url(#paint0_linear_184_2035)" fill-opacity="0.04"/>
<path fill-rule="evenodd" clip-rule="evenodd" d="M530.503 190.979C342.992 190.979 190.983 342.988 190.983 530.499C190.983 718.011 342.992 870.019 530.503 870.019C718.015 870.019 870.023 718.011 870.023 530.499C870.023 342.988 718.015 190.979 530.503 190.979ZM120.25 530.499C120.25 303.923 303.927 120.246 530.503 120.246C757.08 120.246 940.757 303.923 940.757 530.499C940.757 757.076 757.08 940.753 530.503 940.753C303.927 940.753 120.25 757.076 120.25 530.499Z" fill="url(#paint1_linear_184_2035)" fill-opacity="0.04"/>
<path fill-rule="evenodd" clip-rule="evenodd" d="M530.502 321.839C415.261 321.839 321.839 415.261 321.839 530.502C321.839 645.744 415.261 739.165 530.502 739.165C645.744 739.165 739.165 645.744 739.165 530.502C739.165 415.261 645.744 321.839 530.502 321.839ZM251.105 530.502C251.105 376.196 376.196 251.105 530.502 251.105C684.809 251.105 809.899 376.196 809.899 530.502C809.899 684.809 684.809 809.899 530.502 809.899C376.196 809.899 251.105 684.809 251.105 530.502Z" fill="url(#paint2_linear_184_2035)" fill-opacity="0.04"/>
<path fill-rule="evenodd" clip-rule="evenodd" d="M530.501 452.694C487.529 452.694 452.694 487.529 452.694 530.501C452.694 573.472 487.529 608.308 530.501 608.308C573.472 608.308 608.308 573.472 608.308 530.501C608.308 487.529 573.472 452.694 530.501 452.694ZM381.961 530.501C381.961 448.465 448.465 381.961 530.501 381.961C612.537 381.961 679.041 448.465 679.041 530.501C679.041 612.537 612.537 679.041 530.501 679.041C448.465 679.041 381.961 612.537 381.961 530.501Z" fill="url(#paint3_linear_184_2035)" fill-opacity="0.04"/>
<defs>
<linearGradient id="paint0_linear_184_2035" x1="530.502" y1="3.53711" x2="530.502" y2="1057.46" gradientUnits="userSpaceOnUse">
<stop stop-opacity="0.71"/>
<stop offset="0.675" stop-opacity="0"/>
</linearGradient>
<linearGradient id="paint1_linear_184_2035" x1="530.503" y1="120.246" x2="530.503" y2="940.753" gradientUnits="userSpaceOnUse">
<stop stop-opacity="0.71"/>
<stop offset="0.675" stop-opacity="0"/>
</linearGradient>
<linearGradient id="paint2_linear_184_2035" x1="530.502" y1="251.105" x2="530.502" y2="809.899" gradientUnits="userSpaceOnUse">
<stop stop-opacity="0.71"/>
<stop offset="0.675" stop-opacity="0"/>
</linearGradient>
<linearGradient id="paint3_linear_184_2035" x1="530.501" y1="381.961" x2="530.501" y2="679.041" gradientUnits="userSpaceOnUse">
<stop stop-opacity="0.71"/>
<stop offset="0.675" stop-opacity="0"/>
</linearGradient>
</defs>
</svg>
