<svg width="1246" height="468" viewBox="0 0 1246 468" fill="none" xmlns="http://www.w3.org/2000/svg">
<path d="M1104 74C1092.95 74 1084 65.0457 1084 54V20C1084 8.95431 1075.05 0 1064 0H-110C-121.046 0 -130 8.95431 -130 20V415C-130 426.046 -121.046 435 -110 435H-72.5H26.5C35.6127 435 43 442.387 43 451.5C43 460.613 50.3873 468 59.5 468H1140.5C1151.55 468 1160.5 459.046 1160.5 448V429C1160.5 417.954 1169.45 409 1180.5 409H1226C1237.05 409 1246 400.046 1246 389V94C1246 82.9543 1237.05 74 1226 74H1104Z" fill="#D3BBFF"/>
</svg>
