<svg width="60" height="45" viewBox="0 0 60 45" fill="none" xmlns="http://www.w3.org/2000/svg">
<path fill-rule="evenodd" clip-rule="evenodd" d="M19.0274 32.403C20.233 33.6086 21.8682 34.2859 23.5731 34.2859H53.5733C55.2783 34.2859 56.9134 33.6086 58.119 32.403C59.3246 31.1974 60.0019 29.5623 60.0019 27.8573V6.42861C60.0019 4.72364 59.3246 3.08849 58.119 1.8829C56.9134 0.677298 55.2783 0 53.5733 0H23.5731C21.8682 0 20.233 0.677298 19.0274 1.8829C17.8218 3.08849 17.1445 4.72364 17.1445 6.42861V27.8573C17.1445 29.5623 17.8218 31.1974 19.0274 32.403Z" fill="url(#paint0_linear_239_2398)"/>
<g filter="url(#filter0_bi_239_2398)">
<path fill-rule="evenodd" clip-rule="evenodd" d="M6.42861 44.2112C4.72364 44.2112 3.0885 43.5339 1.8829 42.3283C0.677298 41.1227 0 39.4876 0 37.7826V16.3539C0 14.6489 0.677298 13.0138 1.8829 11.8082C3.0885 10.6026 4.72364 9.92529 6.42861 9.92529H36.4288C38.1338 9.92529 39.7689 10.6026 40.9745 11.8082C42.1801 13.0138 42.8574 14.6489 42.8574 16.3539V37.7826C42.8574 39.4876 42.1801 41.1227 40.9745 42.3283C39.7689 43.5339 38.1338 44.2112 36.4288 44.2112H6.42861ZM12.0536 18.9682C11.8354 18.7818 11.5819 18.6412 11.3082 18.5546C11.0345 18.4681 10.7462 18.4374 10.4604 18.4644C10.1747 18.4915 9.89726 18.5756 9.64464 18.7119C9.39203 18.8482 9.16937 19.0339 8.98988 19.2579C8.81039 19.4819 8.67774 19.7396 8.59979 20.0159C8.52184 20.2921 8.50019 20.5812 8.53612 20.866C8.57204 21.1508 8.66482 21.4254 8.80893 21.6737C8.95305 21.9219 9.14556 22.1387 9.37506 22.3111L17.4108 28.7418C18.551 29.6547 19.9681 30.1521 21.4287 30.1521C22.8893 30.1521 24.3064 29.6547 25.4466 28.7418L33.4823 22.3132C33.7021 22.1373 33.8851 21.9199 34.0209 21.6733C34.1566 21.4267 34.2424 21.1558 34.2735 20.876C34.3045 20.5962 34.2802 20.3131 34.2018 20.0427C34.1234 19.7724 33.9925 19.5201 33.8166 19.3003C33.6408 19.0806 33.4233 18.8976 33.1767 18.7618C32.9301 18.6261 32.6592 18.5403 32.3794 18.5092C32.0997 18.4782 31.8165 18.5025 31.5462 18.5809C31.2758 18.6593 31.0235 18.7902 30.8038 18.9661L22.768 25.3947C22.3879 25.699 21.9156 25.8648 21.4287 25.8648C20.9418 25.8648 20.4695 25.699 20.0894 25.3947L12.0536 18.9682Z" fill="url(#paint1_linear_239_2398)" fill-opacity="0.2"/>
<path d="M22.6743 25.2775L22.6742 25.2776C22.3208 25.5606 21.8815 25.7148 21.4287 25.7148C20.9759 25.7148 20.5366 25.5606 20.1832 25.2776L20.1831 25.2775L12.1492 18.8525C11.916 18.6539 11.6455 18.504 11.3534 18.4116C11.0606 18.319 10.7521 18.2862 10.4463 18.3151C10.1406 18.344 9.84372 18.4341 9.57342 18.5799C9.30312 18.7257 9.06487 18.9244 8.87282 19.1641C8.68077 19.4037 8.53883 19.6796 8.45543 19.9751C8.37202 20.2707 8.34885 20.5801 8.38729 20.8848C8.42574 21.1895 8.525 21.4834 8.67921 21.749C8.83302 22.0139 9.03835 22.2454 9.28308 22.4296L17.3171 28.8589C18.4839 29.7931 19.934 30.3021 21.4287 30.3021C22.9234 30.3021 24.3735 29.7931 25.5403 28.8589L33.576 22.4304L33.4823 22.3132L33.5761 22.4303C33.8112 22.2422 34.007 22.0095 34.1523 21.7456C34.2975 21.4818 34.3893 21.1919 34.4226 20.8926C34.4558 20.5932 34.4297 20.2903 34.3458 20.001C34.262 19.7117 34.1219 19.4418 33.9338 19.2066C33.7456 18.9715 33.5129 18.7757 33.2491 18.6304C32.9852 18.4852 32.6953 18.3933 32.396 18.3601C32.0966 18.3269 31.7937 18.353 31.5044 18.4369C31.2151 18.5207 30.9452 18.6608 30.71 18.8489L22.6743 25.2775ZM6.42861 44.0612C4.76342 44.0612 3.16643 43.3997 1.98896 42.2222C0.811495 41.0448 0.15 39.4478 0.15 37.7826V16.3539C0.15 14.6887 0.811495 13.0917 1.98896 11.9143C3.16643 10.7368 4.76342 10.0753 6.42861 10.0753H36.4288C38.094 10.0753 39.691 10.7368 40.8684 11.9143C42.0459 13.0917 42.7074 14.6887 42.7074 16.3539V37.7826C42.7074 39.4478 42.0459 41.0448 40.8684 42.2222C39.691 43.3997 38.094 44.0612 36.4288 44.0612H6.42861Z" stroke="url(#paint2_linear_239_2398)" stroke-opacity="0.1" stroke-width="0.3"/>
</g>
<defs>
<filter id="filter0_bi_239_2398" x="-6" y="3.92529" width="54.8555" height="46.2861" filterUnits="userSpaceOnUse" color-interpolation-filters="sRGB">
<feFlood flood-opacity="0" result="BackgroundImageFix"/>
<feGaussianBlur in="BackgroundImageFix" stdDeviation="3"/>
<feComposite in2="SourceAlpha" operator="in" result="effect1_backgroundBlur_239_2398"/>
<feBlend mode="normal" in="SourceGraphic" in2="effect1_backgroundBlur_239_2398" result="shape"/>
<feColorMatrix in="SourceAlpha" type="matrix" values="0 0 0 0 0 0 0 0 0 0 0 0 0 0 0 0 0 0 127 0" result="hardAlpha"/>
<feOffset dy="1"/>
<feGaussianBlur stdDeviation="1.5"/>
<feComposite in2="hardAlpha" operator="arithmetic" k2="-1" k3="1"/>
<feColorMatrix type="matrix" values="0 0 0 0 1 0 0 0 0 1 0 0 0 0 1 0 0 0 0.4 0"/>
<feBlend mode="normal" in2="shape" result="effect2_innerShadow_239_2398"/>
</filter>
<linearGradient id="paint0_linear_239_2398" x1="17.1445" y1="0" x2="65.9659" y2="15.4958" gradientUnits="userSpaceOnUse">
<stop stop-color="#5AC3B1"/>
<stop offset="0.703125" stop-color="#339F8D"/>
</linearGradient>
<linearGradient id="paint1_linear_239_2398" x1="0" y1="9.92529" x2="48.8213" y2="25.4211" gradientUnits="userSpaceOnUse">
<stop stop-color="#83E9FF"/>
<stop offset="0.453125" stop-color="#85A0FF"/>
</linearGradient>
<linearGradient id="paint2_linear_239_2398" x1="1.33929" y1="11.4837" x2="42.8574" y2="11.4837" gradientUnits="userSpaceOnUse">
<stop stop-color="#3CDEB6"/>
<stop offset="0.65625" stop-color="#364AFF"/>
</linearGradient>
</defs>
</svg>
