<svg width="60" height="60" viewBox="0 0 60 60" fill="none" xmlns="http://www.w3.org/2000/svg">
<circle cx="32.1434" cy="23.5721" r="21.4286" fill="url(#paint0_linear_239_2406)"/>
<g filter="url(#filter0_bi_239_2406)">
<path d="M59.9651 45.3238C59.4301 49.389 57.4337 53.1204 54.3487 55.8211C51.2636 58.5219 47.301 60.0073 43.2008 60C19.3804 60 2.71464e-05 40.6198 2.71464e-05 16.7996C-0.00732292 12.6994 1.47811 8.73674 4.1789 5.65173C6.87968 2.56672 10.6111 0.570319 14.6763 0.0353933C15.7043 -0.0901252 16.7453 0.12018 17.6439 0.634914C18.5425 1.14965 19.2506 1.94121 19.6624 2.89142L25.9985 17.0366V17.0726C26.3137 17.7999 26.4439 18.5941 26.3775 19.384C26.311 20.174 26.0499 20.9352 25.6175 21.5996C25.5635 21.6806 25.5065 21.7556 25.4465 21.8306L19.2004 29.2347C21.4474 33.8007 26.2235 38.5348 30.8496 40.7878L38.1517 34.5747C38.2234 34.5144 38.2985 34.4584 38.3767 34.4067C39.0406 33.9639 39.8044 33.6936 40.599 33.6203C41.3937 33.547 42.194 33.6729 42.9278 33.9867L42.9668 34.0047L57.1 40.3378C58.0519 40.7481 58.8454 41.4555 59.3618 42.3543C59.8783 43.253 60.0899 44.2948 59.9651 45.3238Z" fill="url(#paint1_linear_239_2406)" fill-opacity="0.2"/>
<path d="M43.201 59.85H43.2008C19.4632 59.85 0.150027 40.5369 0.150027 16.7996L0.150027 16.7993C0.142742 12.7356 1.61498 8.80813 4.29176 5.75054C6.96839 2.69312 10.6664 0.71451 14.6952 0.184203C15.6908 0.0627862 16.699 0.266541 17.5693 0.765074C18.4399 1.26372 19.1258 2.03054 19.5247 2.95107L19.5255 2.95274L25.8485 17.0686V17.0726V17.1037L25.8608 17.1322C26.1663 17.8368 26.2924 18.6062 26.228 19.3714C26.1636 20.1364 25.9108 20.8736 25.4922 21.5171C25.442 21.5924 25.3884 21.663 25.3306 21.7354L19.0857 29.138L19.0225 29.2129L19.0658 29.3009C21.3277 33.8973 26.1283 38.6552 30.7839 40.9226L30.8721 40.9656L30.9468 40.902L38.2482 34.6895C38.2482 34.6895 38.2483 34.6895 38.2483 34.6895C38.3156 34.6329 38.386 34.5803 38.4594 34.5319L38.4599 34.5315C39.1031 34.1026 39.843 33.8407 40.6128 33.7697C41.3819 33.6987 42.1566 33.8204 42.8669 34.1238C42.8675 34.1241 42.8681 34.1244 42.8688 34.1246L42.9039 34.1409L42.9054 34.1416L57.0387 40.4747L57.0406 40.4755C57.9628 40.873 58.7315 41.5583 59.2318 42.429C59.7319 43.2994 59.9369 44.3082 59.8163 45.3047C59.286 49.3335 57.3074 53.0316 54.2499 55.7083C51.1922 58.385 47.2648 59.8573 43.201 59.85Z" stroke="url(#paint2_linear_239_2406)" stroke-opacity="0.1" stroke-width="0.3"/>
</g>
<defs>
<filter id="filter0_bi_239_2406" x="-6" y="-6" width="72" height="72" filterUnits="userSpaceOnUse" color-interpolation-filters="sRGB">
<feFlood flood-opacity="0" result="BackgroundImageFix"/>
<feGaussianBlur in="BackgroundImageFix" stdDeviation="3"/>
<feComposite in2="SourceAlpha" operator="in" result="effect1_backgroundBlur_239_2406"/>
<feBlend mode="normal" in="SourceGraphic" in2="effect1_backgroundBlur_239_2406" result="shape"/>
<feColorMatrix in="SourceAlpha" type="matrix" values="0 0 0 0 0 0 0 0 0 0 0 0 0 0 0 0 0 0 127 0" result="hardAlpha"/>
<feOffset dy="1"/>
<feGaussianBlur stdDeviation="1.5"/>
<feComposite in2="hardAlpha" operator="arithmetic" k2="-1" k3="1"/>
<feColorMatrix type="matrix" values="0 0 0 0 1 0 0 0 0 1 0 0 0 0 1 0 0 0 0.4 0"/>
<feBlend mode="normal" in2="shape" result="effect2_innerShadow_239_2406"/>
</filter>
<linearGradient id="paint0_linear_239_2406" x1="10.7148" y1="2.14355" x2="61.1992" y2="14.9625" gradientUnits="userSpaceOnUse">
<stop stop-color="#5AC3B1"/>
<stop offset="0.703125" stop-color="#339F8D"/>
</linearGradient>
<linearGradient id="paint1_linear_239_2406" x1="0" y1="0" x2="70.6782" y2="17.9465" gradientUnits="userSpaceOnUse">
<stop stop-color="#83E9FF"/>
<stop offset="0.453125" stop-color="#85A0FF"/>
</linearGradient>
<linearGradient id="paint2_linear_239_2406" x1="1.875" y1="2.72727" x2="60" y2="2.72727" gradientUnits="userSpaceOnUse">
<stop stop-color="#3CDEB6"/>
<stop offset="0.65625" stop-color="#364AFF"/>
</linearGradient>
</defs>
</svg>
