<svg width="150" height="139" viewBox="0 0 107 106" fill="none" xmlns="http://www.w3.org/2000/svg">
<path d="M52.1927 66.1039C51.7666 67.1652 51.8005 68.4139 52.2805 69.4417L59.1022 83.5642C59.6795 84.7616 59.6231 86.2554 58.9589 87.3869C58.3208 88.5381 57.1915 89.1399 56.0574 88.9431L42.652 86.8053C42.1844 86.7258 41.7087 86.7821 41.259 86.9628L40.5697 87.2663C40.3437 87.4146 40.1375 87.6098 39.9665 87.8452L30.8514 99.9387C30.3964 100.522 29.8018 100.92 29.1476 101.072C27.5382 101.391 26.0108 100.1 25.7059 98.1632L23.4087 82.0482C23.226 80.879 22.585 79.8907 21.6899 79.3973L9.26178 72.6867C8.22212 72.1246 7.5472 70.8902 7.53016 69.5157C7.50388 68.1488 8.10578 66.8778 9.09589 66.2155L21.0675 58.4337C21.9927 57.8905 22.6239 56.8119 22.7411 55.5767L24.1487 39.3271C24.1882 38.9616 24.2733 38.6039 24.407 38.2735L24.571 37.9576C24.6424 37.7451 24.7399 37.5525 24.86 37.3778L25.1001 37.1328L25.4676 36.7273L26.5383 36.2558C27.5307 35.9545 28.5811 36.2752 29.3326 37.1139L39.1196 48.364C39.8297 49.1896 40.8311 49.5389 41.7951 49.3058L55.1034 45.9549C56.2272 45.6689 57.3887 46.1669 58.113 47.2404C58.8179 48.3258 58.9384 49.8044 58.423 51.0374L52.1927 66.1039Z" fill="url(#paint0_linear_261_2807)"/>
<g opacity="0.5" filter="url(#filter0_f_261_2807)">
<path d="M40.4702 57.9316C34.6497 57.9316 29.9258 63.6404 29.9258 70.6715C29.9258 77.7052 34.6497 83.4114 40.4702 83.4114C46.3013 83.4114 51.0146 77.7052 51.0146 70.6715C51.0146 63.6404 46.3013 57.9316 40.4702 57.9316Z" fill="#81BDC4"/>
</g>
<g filter="url(#filter1_b_261_2807)">
<path d="M83.229 63.7307C82.1551 64.4796 81.4542 65.8215 81.3527 67.3154L80.1948 88.0353C80.0955 89.7911 79.1551 91.313 77.7895 91.9306C76.4397 92.5915 74.8975 92.2518 73.8214 91.0685L60.9894 77.2794C60.5447 76.7932 60.0114 76.4428 59.4321 76.2456L58.5285 75.9712C58.2033 75.9325 57.8715 75.9602 57.5528 76.0605L40.8376 80.9262C40.0152 81.1477 39.1557 81.0537 38.3781 80.6507C36.4981 79.6002 35.6536 76.9283 36.4755 74.6296L43.5651 55.7104C44.0626 54.3239 43.9716 52.733 43.3217 51.4436L34.2141 33.6887C33.4526 32.2026 33.4712 30.3238 34.2639 28.8642C35.0425 27.4046 36.4249 26.5865 37.8564 26.7427L55.0317 28.8692C56.3247 29.0947 57.6243 28.5042 58.476 27.3066L69.5398 11.4356C69.797 11.0854 70.0974 10.7826 70.4329 10.5504L70.7916 10.3595C70.9919 10.1976 71.2079 10.079 71.4373 9.99879L71.8343 9.94798L72.4597 9.83808L73.8635 10.2642C75.0845 10.802 75.9996 12.0434 76.2949 13.5721L79.9485 33.8256C80.208 35.3049 81.0548 36.5342 82.2057 37.1191L98.1728 45.0546C99.5229 45.7215 100.45 47.245 100.579 48.9971C100.679 50.7451 99.934 52.4033 98.6649 53.2557L83.229 63.7307Z" fill="url(#paint1_linear_261_2807)" fill-opacity="0.2"/>
<path d="M80.6831 88.1052L80.6831 88.1049L81.8406 67.3912C81.8407 67.3902 81.8408 67.3892 81.8408 67.3882C81.934 66.0296 82.5719 64.8262 83.5201 64.1637C83.5208 64.1632 83.5215 64.1627 83.5223 64.1621L98.9519 53.6915C98.9523 53.6912 98.9528 53.691 98.9532 53.6907C100.368 52.7398 101.177 50.9143 101.067 49.0066L101.067 49.0066L101.066 48.9983C100.927 47.0897 99.9091 45.3651 98.3535 44.5964C98.3533 44.5963 98.353 44.5962 98.3528 44.5961L82.3911 36.6633C82.3904 36.6629 82.3897 36.6626 82.3891 36.6623C81.4162 36.1669 80.6634 35.1057 80.4295 33.7724L80.429 33.7698L76.7754 13.5163L76.7754 13.5163L76.7741 13.5096C76.4499 11.831 75.4326 10.4169 74.0227 9.796C74.0039 9.78773 73.9847 9.78062 73.9653 9.77471L72.5616 9.34855C72.4891 9.32654 72.414 9.32168 72.3421 9.33432L71.727 9.44241L71.3405 9.49187C71.3094 9.49584 71.279 9.503 71.2498 9.51325C70.9864 9.60542 70.7378 9.73955 70.5077 9.91947L70.1842 10.0916C70.1693 10.0996 70.1548 10.1084 70.1408 10.1181C69.7602 10.3816 69.4255 10.7206 69.143 11.1054L69.1429 11.1053L69.1365 11.1145L58.0751 26.982C58.0747 26.9826 58.0743 26.9831 58.0739 26.9837C57.3049 28.0638 56.1643 28.5557 55.0749 28.3657C55.067 28.3643 55.0591 28.3631 55.0512 28.3621L37.876 26.2357L37.876 26.2357L37.8691 26.2349C36.2188 26.0548 34.6815 26.9984 33.8329 28.5882C32.9673 30.1831 32.9383 32.2454 33.7867 33.9011L33.7868 33.9014L42.8926 51.6527C42.8928 51.6532 42.8931 51.6538 42.8934 51.6543C43.469 52.7976 43.5586 54.2327 43.1063 55.496C43.106 55.497 43.1056 55.498 43.1052 55.499L36.018 74.4118L36.0155 74.4187C35.1295 76.8968 36.0076 79.886 38.1744 81.0967L38.189 81.1046C39.0813 81.5671 40.0639 81.6718 40.9941 81.4214L40.9941 81.4215L41.0027 81.4189L57.718 76.5532L57.718 76.5533L57.7272 76.5504C57.9708 76.4737 58.2232 76.4499 58.4708 76.4741L59.3218 76.7325C59.8134 76.9014 60.2672 77.1996 60.6486 77.6165L60.6519 77.6201L73.4795 91.4044C73.4803 91.4053 73.4811 91.4062 73.4819 91.4071C74.7138 92.7596 76.487 93.1459 78.0189 92.399C79.5537 91.7017 80.5751 90.0149 80.6831 88.1052Z" stroke="url(#paint2_linear_261_2807)" stroke-opacity="0.1" stroke-linecap="round" stroke-linejoin="round"/>
</g>
<defs>
<filter id="filter0_f_261_2807" x="9.92578" y="37.9316" width="61.0898" height="65.4795" filterUnits="userSpaceOnUse" color-interpolation-filters="sRGB">
<feFlood flood-opacity="0" result="BackgroundImageFix"/>
<feBlend mode="normal" in="SourceGraphic" in2="BackgroundImageFix" result="shape"/>
<feGaussianBlur stdDeviation="10" result="effect1_foregroundBlur_261_2807"/>
</filter>
<filter id="filter1_b_261_2807" x="8.67578" y="-15.1836" width="116.891" height="132.469" filterUnits="userSpaceOnUse" color-interpolation-filters="sRGB">
<feFlood flood-opacity="0" result="BackgroundImageFix"/>
<feGaussianBlur in="BackgroundImageFix" stdDeviation="12"/>
<feComposite in2="SourceAlpha" operator="in" result="effect1_backgroundBlur_261_2807"/>
<feBlend mode="normal" in="SourceGraphic" in2="effect1_backgroundBlur_261_2807" result="shape"/>
</filter>
<linearGradient id="paint0_linear_261_2807" x1="11.0323" y1="61.1571" x2="76.5339" y2="111.952" gradientUnits="userSpaceOnUse">
<stop stop-color="#64B1B4"/>
<stop offset="1" stop-color="#64B1B4"/>
</linearGradient>
<linearGradient id="paint1_linear_261_2807" x1="40.0547" y1="0" x2="118.713" y2="36.1916" gradientUnits="userSpaceOnUse">
<stop stop-color="#83E9FF"/>
<stop offset="0.453125" stop-color="#85A0FF"/>
</linearGradient>
<linearGradient id="paint2_linear_261_2807" x1="41.4152" y1="4.11212" x2="107.256" y2="17.8054" gradientUnits="userSpaceOnUse">
<stop stop-color="#3CDEB6"/>
<stop offset="0.65625" stop-color="#364AFF"/>
</linearGradient>
</defs>
</svg>
