<svg width="600" height="266" viewBox="0 0 600 266" fill="none" xmlns="http://www.w3.org/2000/svg">
<path d="M14.1973 221.457C15.3256 221.207 16.2068 220.326 16.4568 219.197L19.0945 207.331C19.7851 204.223 24.2149 204.223 24.9055 207.331L27.5432 219.197C27.7932 220.326 28.6744 221.207 29.8027 221.457L41.669 224.094C44.777 224.785 44.777 229.215 41.669 229.906L29.8027 232.543C28.6744 232.793 27.7932 233.674 27.5432 234.803L24.9055 246.669C24.2149 249.777 19.7851 249.777 19.0945 246.669L16.4568 234.803C16.2068 233.674 15.3256 232.793 14.1973 232.543L2.33099 229.906C-0.776996 229.215 -0.776996 224.785 2.33099 224.094L14.1973 221.457Z" fill="white"/>
<path d="M538.133 18.7009C539.415 18.4168 540.417 17.4154 540.701 16.1333L543.698 2.64885C544.483 -0.88295 549.517 -0.88295 550.302 2.64885L553.299 16.1333C553.583 17.4154 554.585 18.4168 555.867 18.7009L569.351 21.6982C572.883 22.4831 572.883 27.5169 569.351 28.3018L555.867 31.2991C554.585 31.5832 553.583 32.5846 553.299 33.8667L550.302 47.3512C549.517 50.883 544.483 50.883 543.698 47.3512L540.701 33.8667C540.417 32.5846 539.415 31.5832 538.133 31.2991L524.649 28.3018C521.117 27.5169 521.117 22.4831 524.649 21.6982L538.133 18.7009Z" fill="white"/>
<path d="M48.4058 255.565C49.4841 255.326 50.3263 254.484 50.5653 253.406L51.3363 249.935C51.6123 248.688 53.3877 248.688 53.6637 249.935L54.4347 253.406C54.6737 254.484 55.5159 255.326 56.5942 255.565L60.0654 256.336C61.3115 256.612 61.3115 258.388 60.0654 258.664L56.5942 259.435C55.5159 259.674 54.6737 260.516 54.4347 261.594L53.6637 265.065C53.3877 266.312 51.6123 266.312 51.3363 265.065L50.5653 261.594C50.3263 260.516 49.4841 259.674 48.4058 259.435L44.9346 258.664C43.6885 258.388 43.6885 256.612 44.9346 256.336L48.4058 255.565Z" fill="white"/>
<path d="M585.183 71.7238C586.452 71.4427 587.443 70.4519 587.724 69.1833L588.631 65.0996C588.956 63.6335 591.044 63.6335 591.369 65.0996L592.276 69.1833C592.557 70.4519 593.548 71.4427 594.817 71.7238L598.9 72.631C600.367 72.9556 600.367 75.0444 598.9 75.369L594.817 76.2762C593.548 76.5573 592.557 77.5481 592.276 78.8167L591.369 82.9004C591.044 84.3665 588.956 84.3665 588.631 82.9004L587.724 78.8167C587.443 77.5481 586.452 76.5573 585.183 76.2762L581.1 75.369C579.633 75.0444 579.633 72.9556 581.1 72.631L585.183 71.7238Z" fill="white"/>
</svg>
