<svg width="868" height="872" viewBox="0 0 868 872" fill="none" xmlns="http://www.w3.org/2000/svg">
<g opacity="0.22">
<mask id="mask0_124_1622" style="mask-type:luminance" maskUnits="userSpaceOnUse" x="0" y="-1" width="868" height="873">
<path d="M-0.00115267 637.413L630.688 871.362L867.132 233.949L236.443 -0.000369255L-0.00115267 637.413Z" fill="white"/>
</mask>
<g mask="url(#mask0_124_1622)">
<path d="M544.651 140.97C574.437 152.019 591.496 187.437 608.029 221.69C614.557 236.089 621.974 250.056 630.237 263.51C638.133 274.524 647.203 284.631 657.284 293.65C670.047 305.938 683.365 318.635 689.952 334.093C697.122 350.431 697.568 369.377 698.019 387.764C697.78 402.578 699.318 417.355 702.601 431.773C705.979 442.808 710.01 453.625 714.672 464.167C725.511 490.082 736.916 516.921 726.647 544.602C699.245 621.199 639.26 685.709 561.939 722.354C484.619 758.999 399.393 763.315 322.776 734.895C247.314 706.903 184.083 646.754 148.948 569.671C113.814 492.588 109.793 404.59 138.028 328.609C163.273 260.552 227.343 160.657 299.913 164.457C314.178 165.663 328.265 168.39 341.939 172.594C361.792 178.019 380.547 183.139 402.995 179.115C420.69 175.931 439.547 167.156 457.635 158.963C487.169 145.37 517.679 131.322 544.029 140.739L544.651 140.97ZM323.426 733.146C399.776 761.467 484.268 757.082 561.324 720.748C638.378 684.412 697.669 620.002 725.005 543.992C734.723 516.976 723.63 490.66 712.913 465.096C708.202 454.479 704.135 443.579 700.73 432.457C697.387 417.891 695.839 402.953 696.121 387.979C695.692 369.804 695.241 351.009 688.193 335.023C681.562 319.957 668.571 307.33 655.908 295.182C645.738 286.047 636.598 275.811 628.65 264.656C620.331 251.144 612.87 237.11 606.314 222.636C589.964 188.706 573.027 153.639 543.953 142.853L543.331 142.624C517.69 133.469 487.469 147.42 458.273 160.782C439.964 169.301 421.21 177.655 403.19 181.178C380.319 185.249 361.37 180.109 341.323 174.663C327.789 170.437 313.828 167.723 299.686 166.567C227.987 162.733 164.605 261.862 139.498 329.409C111.474 404.958 115.4 492.257 150.396 569.033C185.393 645.81 248.407 705.318 323.426 733.146Z" fill="url(#paint0_linear_124_1622)"/>
<path d="M536.536 170.061C563.481 180.056 580.429 209.921 596.855 238.879C602.954 249.664 608.786 259.942 615.035 269.099C622.375 279.159 630.477 288.631 639.267 297.43C652.031 310.943 665.243 324.877 672.38 341.304C679.517 357.731 681.055 377.134 682.539 395.597C683.169 409.046 684.973 422.404 687.931 435.517C690.056 443.4 692.482 451.292 694.99 458.96C702.96 483.759 711.274 509.401 702.033 535.268C688.248 572.635 667.312 606.95 640.423 636.251C613.534 665.552 581.217 689.265 545.32 706.033C511.768 722.224 475.393 731.516 438.329 733.368C401.266 735.219 364.259 729.592 329.483 716.815C259.879 690.996 200.927 634.016 167.745 560.515C135.562 489.223 131.532 409.694 156.716 342.073C177.102 287.116 235.557 182.485 310.184 178.423C326.814 178.285 343.388 180.116 359.567 183.88C377.783 187.319 396.609 190.884 416.312 188.547C431.175 186.204 445.828 182.626 460.122 177.85C486.195 169.914 513.143 161.791 535.853 169.859L536.536 170.061ZM330.132 715.066C364.677 727.752 401.435 733.339 438.25 731.501C475.066 729.663 511.197 720.436 544.526 704.36C616.456 670.652 672.376 609.642 700.013 534.723C709.066 509.501 700.94 484.03 692.971 459.639C690.462 451.971 687.92 443.986 685.882 436.136C682.98 422.911 681.216 409.449 680.608 395.903C679.252 377.64 677.83 358.739 670.666 342.25C663.501 325.762 650.616 312.306 637.937 298.978C629.078 290.106 620.924 280.545 613.547 270.384C607.227 261.15 601.439 250.888 595.268 240.025C579.07 211.407 562.304 181.866 535.981 172.101L535.315 171.854C513.021 163.89 486.566 172.042 460.766 179.926C446.295 184.746 431.454 188.322 416.401 190.621C396.382 192.993 377.423 189.381 359.056 185.936C342.947 182.218 326.441 180.466 309.891 180.713C236.279 184.489 178.383 288.562 158.06 343.082C133.197 410.107 137.127 489.089 169.132 559.908C202.264 632.726 260.84 689.362 330.132 715.066Z" fill="url(#paint1_linear_124_1622)"/>
<path d="M527.125 202.245L527.523 202.393C554.513 212.404 572.165 238.192 589.301 262.922C595.156 271.371 601.21 280.098 607.403 287.907C612.652 294.448 618.69 300.77 624.483 306.798C636.197 319.054 648.316 331.715 655.215 347.696C662.806 365.211 664.65 384.88 666.472 403.929C667.45 414.091 668.428 424.66 670.254 434.575C671.142 439.395 672.219 444.388 673.212 449.197C678.508 474.128 683.954 499.88 674.468 525.043C643.776 606.289 601.762 658.429 545.996 684.339C475.87 716.967 399.147 722.6 335.857 699.633L334.526 699.14C273.312 676.433 218.394 622.327 187.298 554.092C157.181 488.261 152.58 416.941 174.596 358.404C195.048 303.266 249.05 206.425 320.202 192.398C339.555 188.552 358.36 192.721 376.554 196.765C387.826 199.573 399.303 201.493 410.883 202.507C426.125 202.953 441.386 202.074 456.497 199.88C480.567 197.07 505.595 194.258 527.125 202.245ZM334.947 697.459L336.457 698.018C399.478 720.886 475.659 715.358 545.463 682.916C601.462 656.379 641.9 606.308 672.714 524.597C681.867 499.923 676.666 474.465 671.42 449.809C670.427 444.999 669.35 440.007 668.433 435.125C666.552 425.088 665.53 414.501 664.703 404.344C662.919 385.463 661.025 365.929 653.589 348.675C646.83 333 634.81 320.478 623.107 308.329C617.286 302.24 611.249 295.918 605.944 289.254C599.707 281.429 593.607 272.685 587.753 264.237C570.806 239.679 553.242 214.332 526.853 204.339L526.453 204.191C505.324 196.353 480.55 199.157 456.603 201.91C441.369 204.085 425.99 204.971 410.628 204.555C398.954 203.52 387.383 201.582 376.015 198.76C358.043 194.798 339.433 190.651 320.43 194.371C250.092 208.241 196.696 304.541 176.217 359.208C154.583 417.53 159.106 488.107 188.836 553.488C219.686 621.02 274.361 674.832 334.998 697.324L334.947 697.459Z" fill="url(#paint2_linear_124_1622)"/>
<path d="M519.428 236.746C559.379 251.565 619.735 315.65 637.295 354.623C656.718 397.553 660.954 473.535 646.282 514.586C625.591 572.544 596.328 635.64 536.973 664.556C470.604 696.997 399.406 703.658 342.149 682.674L340.818 682.18C285.464 661.647 234.951 610.91 205.499 546.142C178.611 487.123 173.855 424.932 192.449 375.486C212.186 322.278 263.845 227.12 330.148 207.108C351.786 200.641 373.199 206.9 393.973 212.973C402.163 215.398 410.635 217.878 418.975 219.491C431.322 221.875 444.333 223.283 456.867 224.615C477.901 226.854 499.624 229.145 519.366 236.367L519.428 236.746ZM341.206 680.589L342.715 681.148C399.612 701.744 470.238 695.125 536.346 662.844C595.191 634.35 624.126 571.592 644.662 514.189C659.151 473.632 654.904 397.952 635.697 355.663C618.116 316.887 558.307 253.363 518.711 238.675L518.402 238.56C498.87 231.315 477.203 229.147 456.317 226.912C443.739 225.563 430.667 224.185 418.232 221.767C409.849 220.137 401.287 217.625 393.052 215.182C372.589 209.225 351.415 203.004 330.32 209.368C264.749 229.037 213.678 323.699 193.853 376.467C175.664 425.501 180.186 487.095 206.836 545.669C236.16 609.828 286.296 660.22 341.206 680.589Z" fill="url(#paint3_linear_124_1622)"/>
<path d="M511.03 270.684C556.045 288.32 592.229 323.177 611.739 367.701C632.156 412.583 634.53 461.182 618.427 504.458L615.099 513.431C596.96 562.331 576.391 617.782 527.81 644.878C483.779 669.374 411.173 689.497 350.315 666.922L348.272 666.165C304.549 649.129 259.568 605.804 231.083 553.132C200.317 496.4 192.648 437.977 210.078 392.896C219.009 369.773 267.037 252.955 339.027 227.143C362.307 218.835 384.419 227.292 405.821 235.485C410.881 237.363 416.164 239.322 421.224 241.199C432.544 244.99 444.462 248.799 455.981 252.459C474.542 258.374 493.768 264.536 510.786 270.798L511.03 270.684ZM350.997 665.083C411.067 687.468 483.219 667.481 526.955 643.234C575.086 616.533 595.417 561.453 613.367 512.789L616.695 503.816C632.522 461.151 630.125 413.156 610.024 368.648C590.658 324.614 554.83 290.149 510.281 272.702L509.97 272.588C492.969 266.281 473.754 260.225 455.21 254.265C443.691 250.605 431.772 246.797 420.408 242.989C415.303 241.096 410.021 239.137 404.916 237.242C383.742 229.388 361.891 220.773 339.427 228.924C284.393 248.778 236.256 330.085 211.582 393.607C194.363 438.256 201.981 495.997 232.509 552.284C260.894 604.407 305.436 647.417 348.938 664.371L350.997 665.083Z" fill="url(#paint4_linear_124_1622)"/>
<path d="M410.595 257.875C430.227 265.695 449.308 274.836 467.709 285.236C480.344 292.016 492.39 298.474 502.422 302.604C593.366 340.32 623.428 404.802 591.66 494.53C589.531 500.272 587.351 506.15 585.569 512.174C570.959 555.239 555.86 599.755 517.034 625.468C469.142 657.106 400.663 666.919 354.47 648.916C300.292 627.799 270.197 577.288 244.009 527.408C221.44 484.382 211.677 451.211 227.947 408.711C239.895 377.724 283.747 275.026 346.992 252.502C366.023 245.577 388.223 249.576 410.595 257.875ZM356.917 647.63C402.683 664.606 469.23 654.688 516.079 623.684C554.495 598.126 569.394 554.148 583.888 511.397C586.085 505.476 587.893 499.512 589.935 493.736C621.265 405.328 591.646 341.416 501.667 304.365C491.591 300.219 479.545 293.761 466.822 286.948C429.256 266.788 382.602 241.724 347.713 254.097C285.212 276.386 241.653 378.428 229.544 409.304C213.418 451.143 223.226 483.923 245.512 526.485C272.811 578.002 301.585 626.084 355.363 647.054L356.917 647.63Z" fill="url(#paint5_linear_124_1622)"/>
<path d="M406.66 284.538C423.9 291.625 440.478 300.234 456.2 310.264C468.289 318.024 480.955 324.837 494.087 330.646C498.97 332.457 504.207 334.399 509.756 336.459C536.318 345.851 566.358 356.484 579.051 382.576C593.818 412.602 580.571 448.314 569.921 477.026L566.843 485.325C563.88 493.311 561.245 501.775 558.561 509.966C547.056 545.609 535.119 582.419 504.294 606.3C465.319 636.5 405.3 646.644 361.532 630.409C323.002 616.117 278.743 569.078 256.333 518.406C244.901 492.73 234.028 455.064 246.852 421.442C268.292 365.957 304.402 296.52 354.525 280.919C371.969 275.549 389.437 278.149 406.66 284.538ZM499.192 334.581L493.776 332.572C480.46 326.713 467.616 319.833 455.356 311.992C424.244 293.358 389.014 272.072 355.102 282.766C305.706 298.177 269.946 367.08 248.639 422.207C238.699 447.916 241.987 481.799 257.97 517.532C280.079 567.788 323.851 614.646 362.115 628.839C405.44 644.91 464.913 634.869 503.6 604.767C533.976 581.279 545.786 544.679 557.235 509.321C559.875 501.114 562.643 492.699 565.533 484.636C566.514 481.989 567.513 479.297 568.545 476.516C579.063 448.162 592.159 412.855 577.819 383.446C565.459 358.09 535.646 347.388 509.568 338.328L499.192 334.581Z" fill="url(#paint6_linear_124_1622)"/>
<path d="M409.634 313.149C424.053 319.04 437.922 326.2 451.084 334.546C462.395 341.679 474.259 347.889 486.563 353.116C491.357 354.894 496.872 356.634 502.759 358.46C523.666 364.991 549.662 373.052 559.557 392.798C570.496 414.769 559.423 442.712 550.548 465.142C548.883 469.629 547.385 473.667 545.971 477.48C542.976 485.555 540.38 494.187 537.767 502.456C527.916 533.914 517.71 566.466 491.579 588.313C458.512 616.059 408.337 625.263 369.363 610.806L368.875 610.624C332.298 597.056 292.128 555.464 273.165 512.245C260 481.844 257.701 453.738 266.848 430.439C293.907 361.167 324.831 321.908 361.35 310.447C377.32 305.794 394.348 306.747 409.634 313.149ZM486.979 355.261L485.869 354.849C473.472 349.595 461.524 343.336 450.14 336.135C422.08 319.347 392.887 302.343 361.689 312.256C325.73 323.569 295.195 362.461 268.369 431.105C257.052 459.979 265.539 490.738 274.646 511.519C293.448 554.219 333.218 595.254 369.33 608.854L369.818 609.034C408.215 623.277 457.619 614.248 490.174 586.924C515.906 565.338 525.996 533.1 535.842 501.792C538.472 493.478 541.156 484.88 544.062 476.772C545.493 472.913 547.041 468.741 548.672 464.344C557.481 442.095 568.32 414.779 557.715 393.543C548.148 374.684 522.591 366.531 502.022 360.177C496.711 358.565 491.551 356.956 486.979 355.261Z" fill="url(#paint7_linear_124_1622)"/>
<path d="M417.843 343.292C429.162 347.766 440.201 352.917 450.902 358.72C460.146 363.476 468.874 367.989 477.492 371.441C537.851 395.362 549.659 407.499 526.489 473.367C510.803 517.971 487.492 571.69 446.286 591.161C425.391 601.069 401.571 601.165 375.469 591.482L375.025 591.318C341.512 578.886 306.941 544.525 290.835 508.031C279.564 482.466 277.913 457.919 286.013 437.038C298.105 405.798 324.606 352.19 367.212 339.567C384.728 334.275 401.507 337.233 417.843 343.292ZM376.074 589.716C401.731 599.233 425.085 599.169 445.536 589.505C486.105 570.257 509.144 516.999 524.758 472.724C547.341 408.578 535.843 396.556 476.765 373.264C467.887 369.97 459.509 365.332 450.043 360.493C423.707 346.948 396.507 332.878 367.667 341.472C325.727 353.933 299.509 407.186 287.633 437.843C279.701 458.275 281.25 482.276 292.433 507.399C308.372 543.525 342.543 577.329 375.564 589.731L376.074 589.716Z" fill="url(#paint8_linear_124_1622)"/>
<path d="M428.997 371.213C436.72 374.079 444.216 377.421 451.436 380.558C456.807 382.959 461.901 385.154 466.961 387.032C519.935 408.263 527.776 416.531 508.139 472.735C488.946 527.472 465.047 561.681 436.822 574.331C419.423 582.167 400.197 581.721 379.844 573.15C354.529 561.729 332.815 543.567 317.024 520.605C299.189 494.085 294.67 466.381 304.289 442.491C313.908 418.602 335.737 376.633 372.639 365.773C391.782 360.319 410.93 364.512 428.997 371.213ZM384.699 573.267C392.842 576.647 401.584 578.35 410.412 578.277C419.24 578.204 427.977 576.357 436.111 572.843C463.759 560.387 487.404 526.594 506.386 472.289C525.367 417.986 518.642 409.979 466.245 388.96C461.096 387.051 456.024 384.658 450.637 382.304C425.607 371.232 399.733 359.848 373.123 367.738C336.992 378.425 315.561 419.725 306.026 443.39C285.39 494.529 335.498 552.618 380.605 571.646L384.699 573.267Z" fill="url(#paint9_linear_124_1622)"/>
</g>
</g>
<g filter="url(#filter0_d_124_1622)">
<path d="M452.81 390.322L456.397 391.702C503.816 411.084 508.88 422.074 492.635 470.248C485.642 490.959 465.636 540.866 430.602 557.483C423.02 561.071 414.809 562.951 406.507 562.999C398.204 563.046 389.998 561.26 382.426 557.758C338.151 539.092 301.082 489.326 318.311 441.477C327.569 415.607 342.812 397.573 363.596 388.027C387.635 376.554 419.285 377.433 452.81 390.322Z" fill="url(#paint10_linear_124_1622)"/>
</g>
<g clip-path="url(#clip0_124_1622)">
<path d="M354.369 467.114L353.768 466.724L354.232 466.181C354.949 465.362 355.318 464.438 355.318 463.419C355.318 462.829 355.181 462.248 354.928 461.705C354.675 461.171 354.316 460.695 353.873 460.295C353.43 459.895 352.903 459.581 352.312 459.343C351.711 459.114 351.078 459 350.414 459H338V459.771C338 460.01 338.084 460.21 338.264 460.381C338.446 460.546 338.668 460.629 338.928 460.629H350.414C350.836 460.629 351.236 460.705 351.616 460.848C351.996 461 352.333 461.2 352.607 461.448C352.882 461.695 353.103 461.99 353.261 462.333C353.42 462.676 353.504 463.048 353.504 463.419C353.504 463.8 353.42 464.162 353.261 464.495C353.103 464.838 352.882 465.133 352.607 465.39C352.333 465.648 351.996 465.848 351.616 466C351.236 466.143 350.836 466.219 350.414 466.219C350.322 466.219 350.245 466.222 350.182 466.229C350.132 466.235 350.006 466.238 349.802 466.238H338V466.99C338 467.219 338.084 467.429 338.264 467.59C338.443 467.762 338.664 467.848 338.928 467.848H347.988C348.863 467.848 349.517 467.848 349.939 467.857C350.34 467.867 350.646 467.867 350.825 467.867H351.447C351.859 467.867 352.27 467.943 352.65 468.086C353.029 468.238 353.356 468.438 353.63 468.686C353.905 468.933 354.126 469.229 354.295 469.571C354.453 469.914 354.538 470.286 354.538 470.667C354.538 471.038 354.453 471.4 354.305 471.724C354.147 472.057 353.936 472.352 353.673 472.61C353.409 472.867 353.093 473.067 352.734 473.21C352.375 473.362 352.006 473.438 351.616 473.457H338.928C338.668 473.457 338.446 473.537 338.264 473.695C338.095 473.857 338 474.057 338 474.295V475.067H351.901C352.513 475.019 353.103 474.867 353.652 474.61C354.189 474.362 354.664 474.029 355.065 473.638C355.455 473.248 355.771 472.79 355.993 472.286C356.225 471.781 356.341 471.229 356.341 470.667C356.341 469.971 356.162 469.305 355.814 468.686C355.466 468.057 354.98 467.533 354.369 467.114ZM372.056 461.105C371.739 460.81 370.611 459.79 370.611 459.79C370.505 459.695 370.435 459.632 370.4 459.6C370.344 459.549 370.298 459.508 370.263 459.476H370.252C370.084 459.337 369.897 459.222 369.693 459.133C369.482 459.048 369.261 459 369.008 459H367.436L372.53 463.695C372.731 463.876 372.973 463.971 373.248 463.971C373.515 463.971 373.75 463.876 373.954 463.686L374.397 463.267L374.334 463.2C373.374 462.305 372.615 461.6 372.056 461.105ZM384.248 459.505L376.116 467.029L376.37 467.295V475.067H377.329C377.54 475.067 377.727 474.987 377.888 474.829C378.05 474.676 378.131 474.498 378.131 474.295V467.295L387.085 459H385.493C385.039 459 384.617 459.171 384.248 459.505ZM412.588 459H397.537V459.771C397.537 460.01 397.621 460.21 397.801 460.371C397.98 460.524 398.202 460.61 398.465 460.61H413.516V459.857C413.516 459.622 413.428 459.422 413.252 459.257C413.069 459.086 412.848 459 412.588 459ZM405.521 463.876H404.593V474.229C404.593 474.463 404.684 474.66 404.867 474.819C405.043 474.984 405.261 475.067 405.521 475.067H406.449V464.714C406.449 464.486 406.365 464.286 406.186 464.124C406.006 463.962 405.785 463.876 405.521 463.876ZM457.623 466.543C458.066 466.933 458.593 467.248 459.194 467.476C459.785 467.705 460.428 467.829 461.093 467.829H462.042V467.076C462.042 466.838 461.947 466.638 461.757 466.467C461.578 466.305 461.346 466.219 461.093 466.219C460.671 466.219 460.259 466.143 459.88 466C459.5 465.848 459.162 465.648 458.888 465.39C458.604 465.133 458.371 464.838 458.213 464.505C458.055 464.162 457.971 463.8 457.971 463.429C457.971 463.048 458.055 462.676 458.213 462.333C458.371 461.99 458.604 461.695 458.888 461.448C459.162 461.2 459.5 460.99 459.869 460.838C460.249 460.686 460.65 460.61 461.061 460.61H471.312C471.58 460.61 471.805 460.53 471.988 460.371C472.177 460.206 472.272 460.006 472.272 459.771V459H461.24C461.198 459 461.156 459 461.114 459C460.481 459 459.869 459.105 459.289 459.314C458.677 459.533 458.139 459.848 457.675 460.248C457.222 460.648 456.853 461.133 456.589 461.676C456.325 462.219 456.188 462.81 456.188 463.429C456.188 464.019 456.315 464.6 456.579 465.143C456.832 465.676 457.18 466.152 457.623 466.543ZM472.61 468.952C472.357 468.41 472.009 467.933 471.566 467.533C471.123 467.133 470.595 466.819 469.994 466.59C469.404 466.352 468.76 466.238 468.096 466.238H467.125V467.01C467.125 467.244 467.213 467.444 467.389 467.61C467.568 467.762 467.79 467.848 468.043 467.848C468.539 467.867 468.971 467.952 469.351 468.114C469.73 468.276 470.068 468.486 470.342 468.743C470.616 468.99 470.827 469.295 470.975 469.629C471.123 469.962 471.196 470.314 471.196 470.667C471.196 471.029 471.112 471.381 470.964 471.714C470.806 472.057 470.595 472.352 470.332 472.6C470.057 472.848 469.752 473.048 469.393 473.2C469.034 473.352 468.655 473.438 468.275 473.457H457.391C457.137 473.457 456.905 473.533 456.726 473.695C456.536 473.854 456.441 474.054 456.441 474.295V475.067H468.433C469.119 475.019 469.741 474.857 470.3 474.6C470.848 474.343 471.334 474 471.734 473.61C472.125 473.21 472.441 472.743 472.663 472.238C472.884 471.733 473 471.2 473 470.667C473 470.067 472.873 469.486 472.61 468.952Z" fill="#454183"/>
<path d="M442.667 461.742C442.611 461.742 442.547 461.739 442.477 461.733C442.108 461.704 441.781 461.666 441.496 461.628C440.463 461.476 439.506 461.336 438.627 461.209C437.552 461.057 436.634 460.971 435.896 460.961H435.801C435.221 460.961 434.419 461.028 433.417 461.161C432.51 461.285 431.466 461.438 430.295 461.619C429.979 461.666 429.631 461.704 429.272 461.733C429.188 461.739 429.107 461.742 429.03 461.742C428.777 461.742 428.566 461.704 428.376 461.638C427.669 461.39 427.269 460.733 427.406 460.047C427.543 459.361 428.144 458.885 428.903 458.866H428.967C429.336 458.866 429.895 458.923 430.686 459.047C432.363 459.314 433.66 459.504 435.115 459.619C435.361 459.644 435.608 459.657 435.854 459.657C436.075 459.657 436.318 459.647 436.539 459.628C438.069 459.504 439.545 459.276 440.927 459.057C441.528 458.961 442.119 458.895 442.667 458.866C442.695 458.866 442.727 458.866 442.762 458.866C443.008 458.866 443.247 458.923 443.479 459.038C443.943 459.276 444.26 459.704 444.312 460.18C444.354 460.647 444.154 461.095 443.743 461.409C443.447 461.628 443.089 461.742 442.667 461.742ZM443.173 459.523C443.785 459.828 443.901 460.571 443.352 460.99C443.135 461.149 442.86 461.215 442.53 461.19C442.171 461.158 441.862 461.123 441.602 461.085C440.561 460.933 439.605 460.793 438.733 460.666C437.615 460.507 436.673 460.422 435.906 460.409C435.288 460.403 434.43 460.473 433.333 460.619C432.419 460.739 431.371 460.892 430.19 461.076C429.888 461.12 429.568 461.155 429.23 461.18C428.963 461.2 428.752 461.18 428.597 461.123C427.627 460.78 427.88 459.438 428.924 459.419C429.241 459.412 429.796 459.469 430.591 459.59C432.236 459.847 433.554 460.047 435.063 460.171C435.583 460.215 436.093 460.215 436.592 460.171C438.09 460.057 439.566 459.838 441.032 459.6C441.616 459.504 442.175 459.444 442.709 459.419C442.871 459.412 443.026 459.447 443.173 459.523ZM442.667 468.352C442.611 468.352 442.547 468.352 442.477 468.352C442.108 468.314 441.781 468.285 441.496 468.238C440.463 468.085 439.506 467.946 438.627 467.819C437.552 467.666 436.634 467.58 435.896 467.571H435.801C435.221 467.571 434.419 467.638 433.417 467.771C432.51 467.895 431.466 468.047 430.295 468.228C429.979 468.276 429.631 468.314 429.272 468.342C429.188 468.349 429.107 468.352 429.03 468.352C428.777 468.352 428.566 468.323 428.376 468.247C427.669 468 427.269 467.342 427.406 466.657C427.543 465.971 428.144 465.495 428.903 465.476H428.967C429.336 465.476 429.895 465.542 430.686 465.666C432.363 465.923 433.66 466.114 435.115 466.238C435.361 466.257 435.608 466.266 435.854 466.266C436.075 466.266 436.318 466.257 436.539 466.238C438.069 466.114 439.545 465.895 440.927 465.666C441.528 465.571 442.119 465.514 442.667 465.476C442.695 465.476 442.727 465.476 442.762 465.476C443.008 465.476 443.247 465.533 443.479 465.647C443.943 465.895 444.26 466.314 444.312 466.79C444.354 467.257 444.154 467.704 443.743 468.019C443.447 468.247 443.089 468.352 442.667 468.352ZM443.173 466.133C443.785 466.438 443.901 467.18 443.352 467.6C443.135 467.758 442.86 467.825 442.53 467.8C442.171 467.768 441.862 467.733 441.602 467.695C440.561 467.542 439.605 467.403 438.733 467.276C437.615 467.117 436.673 467.031 435.906 467.019C435.288 467.012 434.43 467.082 433.333 467.228C432.419 467.349 431.371 467.501 430.19 467.685C429.888 467.73 429.568 467.765 429.23 467.79C428.963 467.815 428.752 467.8 428.597 467.742C427.627 467.39 427.88 466.057 428.924 466.028C429.241 466.022 429.796 466.082 430.591 466.209C432.236 466.466 433.554 466.666 435.063 466.78C435.583 466.825 436.093 466.828 436.592 466.79C438.09 466.666 439.566 466.447 441.032 466.209C441.616 466.12 442.175 466.06 442.709 466.028C442.871 466.022 443.026 466.057 443.173 466.133ZM442.667 474.819C442.611 474.819 442.547 474.819 442.477 474.819C442.108 474.78 441.781 474.742 441.496 474.704C440.463 474.552 439.506 474.412 438.627 474.285C437.552 474.133 436.624 474.047 435.896 474.038H435.801C435.221 474.038 434.419 474.104 433.417 474.238C432.521 474.361 431.466 474.514 430.295 474.695C429.979 474.742 429.631 474.78 429.272 474.809C429.188 474.815 429.107 474.819 429.03 474.819C428.777 474.819 428.566 474.78 428.376 474.714C427.669 474.466 427.269 473.809 427.406 473.123C427.543 472.438 428.144 471.961 428.903 471.942H428.967C429.336 471.942 429.895 472.009 430.686 472.133C432.363 472.39 433.67 472.58 435.115 472.704C435.361 472.723 435.604 472.733 435.843 472.733C436.075 472.733 436.307 472.723 436.539 472.704C438.058 472.58 439.545 472.361 440.927 472.133C441.528 472.038 442.119 471.971 442.667 471.942C442.695 471.942 442.727 471.942 442.762 471.942C443.004 471.942 443.247 472 443.479 472.114C443.943 472.352 444.26 472.78 444.312 473.257C444.354 473.723 444.154 474.171 443.743 474.485C443.447 474.704 443.089 474.819 442.667 474.819ZM443.173 472.6C443.785 472.904 443.901 473.647 443.352 474.066C443.135 474.225 442.86 474.292 442.53 474.266C442.171 474.234 441.862 474.2 441.602 474.161C440.561 474.009 439.605 473.869 438.733 473.742C437.615 473.584 436.673 473.498 435.906 473.485C435.288 473.479 434.43 473.549 433.333 473.695C432.419 473.815 431.371 473.968 430.19 474.152C429.888 474.196 429.568 474.231 429.23 474.257C428.963 474.276 428.752 474.257 428.597 474.2C427.627 473.857 427.88 472.514 428.924 472.495C429.241 472.488 429.796 472.549 430.591 472.676C432.236 472.933 433.554 473.133 435.063 473.247C435.583 473.292 436.093 473.292 436.592 473.247C438.09 473.133 439.566 472.914 441.032 472.676C441.616 472.587 442.175 472.527 442.709 472.495C442.871 472.488 443.026 472.523 443.173 472.6Z" fill="#59C1B0"/>
</g>
<g filter="url(#filter1_dd_124_1622)">
<circle cx="386.496" cy="186.308" r="39.4534" fill="white"/>
</g>
<path d="M379.848 169.796L382.77 172.572C383.866 173.595 384.451 174.983 384.451 176.518C384.451 177.979 385.035 179.367 386.058 180.39L386.423 180.755L389.784 169.869" fill="#452C98"/>
<path d="M369.91 179.514L373.929 179.368C375.39 179.295 376.851 179.879 377.874 180.902C378.897 181.925 380.285 182.436 381.746 182.436H382.258L376.851 172.427" fill="#452C98"/>
<path d="M369.911 193.395L372.614 190.472C373.637 189.376 375.025 188.719 376.486 188.719C377.947 188.719 379.263 188.061 380.285 187.038L380.651 186.673L369.691 183.531" fill="#452C98"/>
<path d="M379.846 203.039L379.627 199.02C379.554 197.559 380.066 196.098 381.088 195.002C382.038 193.979 382.623 192.518 382.55 191.13V190.618L372.613 196.244" fill="#452C98"/>
<path d="M393.731 202.747L390.735 200.117C389.639 199.167 388.982 197.779 388.908 196.245C388.835 194.783 388.178 193.468 387.155 192.445L386.79 192.08L383.867 203.112" fill="#452C98"/>
<path d="M403.228 192.592L399.21 192.884C397.748 193.03 396.287 192.519 395.191 191.496C394.095 190.546 392.707 190.034 391.246 190.107H390.734L396.579 199.898" fill="#452C98"/>
<path d="M402.57 178.782L400.013 181.851C399.063 182.947 397.675 183.677 396.214 183.75C394.752 183.823 393.437 184.481 392.488 185.577L392.195 185.942L403.301 188.573" fill="#452C98"/>
<path d="M392.269 169.504L392.634 173.522C392.78 174.984 392.342 176.445 391.319 177.614C390.369 178.71 389.931 180.098 390.004 181.559L390.077 182.071L399.721 176.006" fill="#452C98"/>
<g filter="url(#filter2_dd_124_1622)">
<circle cx="133.703" cy="454.445" r="39.4534" fill="white"/>
</g>
<path d="M147.435 444.216H118.359C120.47 444.685 121.955 446.561 121.955 448.671V474.932C124.847 472.04 126.41 468.211 126.41 464.146V449.452C126.41 449.062 126.722 448.671 127.191 448.671C127.582 448.671 127.973 448.984 127.973 449.452V468.992C130.865 466.1 132.428 462.271 132.428 458.206V449.452C132.428 449.062 132.741 448.671 133.21 448.671C133.6 448.671 133.991 448.984 133.991 449.452V463.052L137.899 459.144C138.055 458.988 138.134 458.832 138.212 458.675V458.597C138.368 458.363 138.368 458.128 138.446 457.816C138.837 452.735 143.058 448.671 148.294 448.671H151.968L147.435 444.216Z" fill="#0073E2"/>
<g filter="url(#filter3_dd_124_1622)">
<circle cx="685.321" cy="584.494" r="39.4534" fill="white"/>
</g>
<path d="M702.203 579.025H690.789V567.69H679.851C679.851 573.952 674.778 579.025 668.516 579.025V589.964H679.851V601.299H690.789C690.789 595.037 695.941 589.964 702.203 589.964V579.025Z" fill="#C28540"/>
<g filter="url(#filter4_dd_124_1622)">
<circle cx="472.711" cy="572.805" r="39.4534" fill="white"/>
</g>
<path d="M461.458 562.211H461.02V569.298H469.641C470.444 569.298 470.737 570.394 470.006 570.759L468.326 571.563C466.061 572.659 463.796 573.243 461.458 573.243H461.02V580.33H469.422C470.225 580.33 470.518 581.426 469.787 581.791L468.033 582.595C465.915 583.618 463.65 584.129 461.458 584.129H461.02V591.216H469.422L470.371 590.047C474.463 585.298 479.212 582.814 484.18 582.814H484.545V575.727H476.143C475.34 575.727 475.047 574.631 475.778 574.266L477.532 573.462C479.65 572.439 481.915 571.928 484.107 571.928H484.472V564.841H475.924C475.12 564.841 474.828 563.745 475.559 563.38L477.239 562.576C479.504 561.48 481.769 560.896 484.107 560.896H484.472V553.809H476.07L475.12 554.978C471.175 559.727 466.353 562.211 461.458 562.211Z" fill="#C2B8FF"/>
<g filter="url(#filter5_dd_124_1622)">
<circle cx="553.809" cy="340.468" r="39.4534" fill="white"/>
</g>
<path d="M553.981 351.682L548.886 346.588C545.283 342.985 539.195 345.532 539.195 350.626V357.273H568.766V336.896L553.981 351.682Z" fill="#FF6D4B"/>
<path d="M553.981 329.255L559.075 334.349C562.678 337.952 568.766 335.405 568.766 330.311V323.664H539.195V344.04L553.981 329.255Z" fill="#FF6D4B"/>
<g filter="url(#filter6_dd_124_1622)">
<circle cx="298.458" cy="344.487" r="35.435" fill="white"/>
</g>
<path d="M301.067 352.758C298.666 351.866 296.196 351.729 293.932 352.346C292.354 352.758 290.845 353.581 289.473 354.61L288.513 355.434L288.238 355.708L288.856 356.257C288.924 356.257 288.924 356.325 288.993 356.394C289.13 356.531 289.267 356.6 289.473 356.737L289.885 357.011L290.296 356.668C290.365 356.6 290.502 356.463 290.639 356.394C291.874 355.365 293.246 354.679 294.687 354.336C296.539 353.856 298.529 353.924 300.518 354.679C302.165 355.296 305.526 356.051 309.574 354.336L309.711 354.267L309.917 354.062C309.917 353.993 309.985 353.993 310.054 353.924C310.397 353.513 310.74 353.101 311.015 352.621L312.387 350.494L310.191 351.729C306.967 353.513 304.017 353.856 301.067 352.758Z" fill="#201B21"/>
<path d="M291.669 345.349C293.521 344.869 295.511 344.937 297.5 345.692C299.695 346.515 305.321 347.682 311.632 341.988L312.661 340.958L312.73 340.89L313.004 340.615L312.867 340.272C312.799 339.998 312.661 339.655 312.524 339.312L312.181 338.352L311.495 339.038C311.427 339.175 311.289 339.243 311.152 339.381C308.134 342.468 303.469 345.624 298.118 343.703C295.716 342.811 293.247 342.674 290.983 343.291C288.788 343.908 286.867 345.075 285.083 346.721V346.653L284.054 347.75C284.054 347.819 283.985 347.819 283.917 347.887L283.711 348.093L283.78 348.368C283.848 348.711 283.985 349.054 284.054 349.397L284.466 350.494L285.152 349.602C285.22 349.465 285.357 349.397 285.426 349.259C286.867 347.956 288.856 346.104 291.669 345.349Z" fill="#201B21"/>
<path d="M285.014 344.115C286.592 342.468 288.375 341.439 290.296 340.89C292.148 340.41 294.138 340.479 296.127 341.233C302.302 343.497 307.653 339.793 309.985 337.803L310.877 336.911L311.22 336.637L310.946 336.225C310.74 336.02 310.603 335.745 310.397 335.471L309.985 334.922L309.505 335.402C309.436 335.471 309.299 335.608 309.231 335.677C306.349 338.421 301.89 341.233 296.813 339.312C294.412 338.421 291.943 338.283 289.679 338.901C288.238 339.312 286.866 339.999 285.494 340.89L284.053 342.057C283.916 342.194 283.847 342.262 283.71 342.4L283.573 342.537V342.743C283.504 343.223 283.504 343.703 283.436 344.115L283.367 345.83L284.533 344.595C284.671 344.458 284.808 344.252 285.014 344.115Z" fill="#201B21"/>
<path d="M303.057 357.423L302.92 357.835L303.057 357.423C302.851 357.354 302.714 357.286 302.508 357.217C300.107 356.325 297.638 356.188 295.374 356.806C294.894 356.943 294.413 357.08 293.933 357.286L292.287 358.04L291.875 358.246L293.247 358.727C293.659 358.864 294.07 359.001 294.482 359.138L294.688 359.207L294.894 359.138C295.099 359.07 295.305 358.932 295.511 358.932C295.648 358.932 295.785 358.864 295.923 358.795C297.569 358.384 299.353 358.383 301.274 359.001C301.479 359.07 301.617 359.138 301.822 359.207L302.165 359.344L302.371 359.275C302.851 359.138 303.4 359.001 303.812 358.795L305.733 358.109L303.743 357.629C303.538 357.56 303.263 357.492 303.057 357.423Z" fill="#201B21"/>
<path d="M313.554 343.223L312.525 344.252C312.388 344.389 312.251 344.526 312.114 344.663C309.301 347.339 304.773 350.22 299.696 348.299C297.295 347.407 294.826 347.27 292.562 347.888C290.435 348.505 288.514 349.603 286.799 351.249L285.907 352.21L285.633 352.553L285.907 352.964C286.113 353.239 286.25 353.445 286.387 353.719L286.799 354.336L287.279 353.719C287.348 353.65 287.485 353.513 287.554 353.445C289.2 351.661 290.984 350.563 293.042 350.014C294.894 349.534 296.884 349.603 298.873 350.357C300.588 350.975 302.372 351.181 304.156 350.975C307.311 350.632 310.467 348.848 312.8 346.859C312.937 346.721 313.074 346.653 313.211 346.516L313.417 346.31V346.104C313.417 345.692 313.486 345.212 313.486 344.801L313.554 343.223Z" fill="#201B21"/>
<path d="M287.485 336.911L287.279 336.499L287.485 336.911C287.897 336.705 288.377 336.568 288.789 336.431C290.641 335.95 292.63 336.019 294.62 336.774C295.923 337.254 297.227 337.46 298.667 337.46C301.549 337.46 304.43 336.431 307.106 334.441L308.135 333.618L308.478 333.343L307.86 332.863C307.654 332.657 307.38 332.452 307.106 332.314L306.694 332.04L306.351 332.314C306.214 332.383 306.145 332.52 306.008 332.589C302.372 335.333 298.736 336.088 295.306 334.784C292.836 333.892 290.366 333.687 287.897 334.441C287.691 334.51 287.485 334.578 287.211 334.647L287.073 334.716L286.868 334.921C286.868 334.99 286.799 334.99 286.73 335.059C286.456 335.47 286.113 335.813 285.839 336.225L284.535 338.214L286.662 337.117C287.005 337.117 287.279 336.979 287.485 336.911Z" fill="#201B21"/>
<path d="M293.109 332.246L293.315 332.315C294.207 332.658 295.579 333.001 297.294 333.001C299.078 333.001 300.793 332.589 302.508 331.903L304.635 330.874L303.194 330.394C302.782 330.257 302.371 330.119 301.891 330.051H301.685L301.479 330.119C301.273 330.188 301.067 330.325 300.862 330.394C298.803 331.148 296.745 331.286 294.756 330.737C294.55 330.668 294.344 330.6 294.138 330.531L293.933 330.462L293.727 330.531C293.315 330.668 292.904 330.805 292.492 331.011L290.914 331.697L292.561 332.177C292.698 332.109 292.904 332.177 293.109 332.246Z" fill="#201B21"/>
<g filter="url(#filter7_dd_124_1622)">
<circle cx="300.285" cy="663.402" r="39.4534" fill="white"/>
</g>
<path d="M300.248 647.173V663.124L296.612 661.047C290.158 657.337 286.151 650.438 286.151 642.944H283.48V661.195C283.48 667.131 286.893 672.621 292.309 675.217L300.322 679.075V663.124L303.957 665.202C310.412 668.911 314.418 675.811 314.418 683.304H317.089V665.053C317.089 659.118 313.676 653.628 308.26 651.031L300.248 647.173Z" fill="#59C1B0"/>
<defs>
<filter id="filter0_d_124_1622" x="224" y="292" width="367" height="363" filterUnits="userSpaceOnUse" color-interpolation-filters="sRGB">
<feFlood flood-opacity="0" result="BackgroundImageFix"/>
<feColorMatrix in="SourceAlpha" type="matrix" values="0 0 0 0 0 0 0 0 0 0 0 0 0 0 0 0 0 0 127 0" result="hardAlpha"/>
<feOffset dy="2"/>
<feGaussianBlur stdDeviation="45"/>
<feComposite in2="hardAlpha" operator="out"/>
<feColorMatrix type="matrix" values="0 0 0 0 0.100224 0 0 0 0 0.35522 0 0 0 0 0.601345 0 0 0 0.08 0"/>
<feBlend mode="normal" in2="BackgroundImageFix" result="effect1_dropShadow_124_1622"/>
<feBlend mode="normal" in="SourceGraphic" in2="effect1_dropShadow_124_1622" result="shape"/>
</filter>
<filter id="filter1_dd_124_1622" x="313.643" y="113.454" width="145.706" height="145.707" filterUnits="userSpaceOnUse" color-interpolation-filters="sRGB">
<feFlood flood-opacity="0" result="BackgroundImageFix"/>
<feColorMatrix in="SourceAlpha" type="matrix" values="0 0 0 0 0 0 0 0 0 0 0 0 0 0 0 0 0 0 127 0" result="hardAlpha"/>
<feMorphology radius="25" operator="erode" in="SourceAlpha" result="effect1_dropShadow_124_1622"/>
<feOffset/>
<feGaussianBlur stdDeviation="29.2"/>
<feComposite in2="hardAlpha" operator="out"/>
<feColorMatrix type="matrix" values="0 0 0 0 0 0 0 0 0 0 0 0 0 0 0 0 0 0 0.07 0"/>
<feBlend mode="normal" in2="BackgroundImageFix" result="effect1_dropShadow_124_1622"/>
<feColorMatrix in="SourceAlpha" type="matrix" values="0 0 0 0 0 0 0 0 0 0 0 0 0 0 0 0 0 0 127 0" result="hardAlpha"/>
<feMorphology radius="9" operator="dilate" in="SourceAlpha" result="effect2_dropShadow_124_1622"/>
<feOffset/>
<feGaussianBlur stdDeviation="5.35"/>
<feComposite in2="hardAlpha" operator="out"/>
<feColorMatrix type="matrix" values="0 0 0 0 0 0 0 0 0 0 0 0 0 0 0 0 0 0 0.03 0"/>
<feBlend mode="normal" in2="effect1_dropShadow_124_1622" result="effect2_dropShadow_124_1622"/>
<feBlend mode="normal" in="SourceGraphic" in2="effect2_dropShadow_124_1622" result="shape"/>
</filter>
<filter id="filter2_dd_124_1622" x="60.85" y="381.591" width="145.706" height="145.707" filterUnits="userSpaceOnUse" color-interpolation-filters="sRGB">
<feFlood flood-opacity="0" result="BackgroundImageFix"/>
<feColorMatrix in="SourceAlpha" type="matrix" values="0 0 0 0 0 0 0 0 0 0 0 0 0 0 0 0 0 0 127 0" result="hardAlpha"/>
<feMorphology radius="25" operator="erode" in="SourceAlpha" result="effect1_dropShadow_124_1622"/>
<feOffset/>
<feGaussianBlur stdDeviation="29.2"/>
<feComposite in2="hardAlpha" operator="out"/>
<feColorMatrix type="matrix" values="0 0 0 0 0 0 0 0 0 0 0 0 0 0 0 0 0 0 0.07 0"/>
<feBlend mode="normal" in2="BackgroundImageFix" result="effect1_dropShadow_124_1622"/>
<feColorMatrix in="SourceAlpha" type="matrix" values="0 0 0 0 0 0 0 0 0 0 0 0 0 0 0 0 0 0 127 0" result="hardAlpha"/>
<feMorphology radius="9" operator="dilate" in="SourceAlpha" result="effect2_dropShadow_124_1622"/>
<feOffset/>
<feGaussianBlur stdDeviation="5.35"/>
<feComposite in2="hardAlpha" operator="out"/>
<feColorMatrix type="matrix" values="0 0 0 0 0 0 0 0 0 0 0 0 0 0 0 0 0 0 0.03 0"/>
<feBlend mode="normal" in2="effect1_dropShadow_124_1622" result="effect2_dropShadow_124_1622"/>
<feBlend mode="normal" in="SourceGraphic" in2="effect2_dropShadow_124_1622" result="shape"/>
</filter>
<filter id="filter3_dd_124_1622" x="612.467" y="511.641" width="145.706" height="145.707" filterUnits="userSpaceOnUse" color-interpolation-filters="sRGB">
<feFlood flood-opacity="0" result="BackgroundImageFix"/>
<feColorMatrix in="SourceAlpha" type="matrix" values="0 0 0 0 0 0 0 0 0 0 0 0 0 0 0 0 0 0 127 0" result="hardAlpha"/>
<feMorphology radius="25" operator="erode" in="SourceAlpha" result="effect1_dropShadow_124_1622"/>
<feOffset/>
<feGaussianBlur stdDeviation="29.2"/>
<feComposite in2="hardAlpha" operator="out"/>
<feColorMatrix type="matrix" values="0 0 0 0 0 0 0 0 0 0 0 0 0 0 0 0 0 0 0.07 0"/>
<feBlend mode="normal" in2="BackgroundImageFix" result="effect1_dropShadow_124_1622"/>
<feColorMatrix in="SourceAlpha" type="matrix" values="0 0 0 0 0 0 0 0 0 0 0 0 0 0 0 0 0 0 127 0" result="hardAlpha"/>
<feMorphology radius="9" operator="dilate" in="SourceAlpha" result="effect2_dropShadow_124_1622"/>
<feOffset/>
<feGaussianBlur stdDeviation="5.35"/>
<feComposite in2="hardAlpha" operator="out"/>
<feColorMatrix type="matrix" values="0 0 0 0 0 0 0 0 0 0 0 0 0 0 0 0 0 0 0.03 0"/>
<feBlend mode="normal" in2="effect1_dropShadow_124_1622" result="effect2_dropShadow_124_1622"/>
<feBlend mode="normal" in="SourceGraphic" in2="effect2_dropShadow_124_1622" result="shape"/>
</filter>
<filter id="filter4_dd_124_1622" x="399.858" y="499.952" width="145.706" height="145.707" filterUnits="userSpaceOnUse" color-interpolation-filters="sRGB">
<feFlood flood-opacity="0" result="BackgroundImageFix"/>
<feColorMatrix in="SourceAlpha" type="matrix" values="0 0 0 0 0 0 0 0 0 0 0 0 0 0 0 0 0 0 127 0" result="hardAlpha"/>
<feMorphology radius="25" operator="erode" in="SourceAlpha" result="effect1_dropShadow_124_1622"/>
<feOffset/>
<feGaussianBlur stdDeviation="29.2"/>
<feComposite in2="hardAlpha" operator="out"/>
<feColorMatrix type="matrix" values="0 0 0 0 0 0 0 0 0 0 0 0 0 0 0 0 0 0 0.07 0"/>
<feBlend mode="normal" in2="BackgroundImageFix" result="effect1_dropShadow_124_1622"/>
<feColorMatrix in="SourceAlpha" type="matrix" values="0 0 0 0 0 0 0 0 0 0 0 0 0 0 0 0 0 0 127 0" result="hardAlpha"/>
<feMorphology radius="9" operator="dilate" in="SourceAlpha" result="effect2_dropShadow_124_1622"/>
<feOffset/>
<feGaussianBlur stdDeviation="5.35"/>
<feComposite in2="hardAlpha" operator="out"/>
<feColorMatrix type="matrix" values="0 0 0 0 0 0 0 0 0 0 0 0 0 0 0 0 0 0 0.03 0"/>
<feBlend mode="normal" in2="effect1_dropShadow_124_1622" result="effect2_dropShadow_124_1622"/>
<feBlend mode="normal" in="SourceGraphic" in2="effect2_dropShadow_124_1622" result="shape"/>
</filter>
<filter id="filter5_dd_124_1622" x="480.955" y="267.615" width="145.706" height="145.707" filterUnits="userSpaceOnUse" color-interpolation-filters="sRGB">
<feFlood flood-opacity="0" result="BackgroundImageFix"/>
<feColorMatrix in="SourceAlpha" type="matrix" values="0 0 0 0 0 0 0 0 0 0 0 0 0 0 0 0 0 0 127 0" result="hardAlpha"/>
<feMorphology radius="25" operator="erode" in="SourceAlpha" result="effect1_dropShadow_124_1622"/>
<feOffset/>
<feGaussianBlur stdDeviation="29.2"/>
<feComposite in2="hardAlpha" operator="out"/>
<feColorMatrix type="matrix" values="0 0 0 0 0 0 0 0 0 0 0 0 0 0 0 0 0 0 0.07 0"/>
<feBlend mode="normal" in2="BackgroundImageFix" result="effect1_dropShadow_124_1622"/>
<feColorMatrix in="SourceAlpha" type="matrix" values="0 0 0 0 0 0 0 0 0 0 0 0 0 0 0 0 0 0 127 0" result="hardAlpha"/>
<feMorphology radius="9" operator="dilate" in="SourceAlpha" result="effect2_dropShadow_124_1622"/>
<feOffset/>
<feGaussianBlur stdDeviation="5.35"/>
<feComposite in2="hardAlpha" operator="out"/>
<feColorMatrix type="matrix" values="0 0 0 0 0 0 0 0 0 0 0 0 0 0 0 0 0 0 0.03 0"/>
<feBlend mode="normal" in2="effect1_dropShadow_124_1622" result="effect2_dropShadow_124_1622"/>
<feBlend mode="normal" in="SourceGraphic" in2="effect2_dropShadow_124_1622" result="shape"/>
</filter>
<filter id="filter6_dd_124_1622" x="229.623" y="275.652" width="137.671" height="137.67" filterUnits="userSpaceOnUse" color-interpolation-filters="sRGB">
<feFlood flood-opacity="0" result="BackgroundImageFix"/>
<feColorMatrix in="SourceAlpha" type="matrix" values="0 0 0 0 0 0 0 0 0 0 0 0 0 0 0 0 0 0 127 0" result="hardAlpha"/>
<feMorphology radius="25" operator="erode" in="SourceAlpha" result="effect1_dropShadow_124_1622"/>
<feOffset/>
<feGaussianBlur stdDeviation="29.2"/>
<feComposite in2="hardAlpha" operator="out"/>
<feColorMatrix type="matrix" values="0 0 0 0 0 0 0 0 0 0 0 0 0 0 0 0 0 0 0.07 0"/>
<feBlend mode="normal" in2="BackgroundImageFix" result="effect1_dropShadow_124_1622"/>
<feColorMatrix in="SourceAlpha" type="matrix" values="0 0 0 0 0 0 0 0 0 0 0 0 0 0 0 0 0 0 127 0" result="hardAlpha"/>
<feMorphology radius="9" operator="dilate" in="SourceAlpha" result="effect2_dropShadow_124_1622"/>
<feOffset/>
<feGaussianBlur stdDeviation="5.35"/>
<feComposite in2="hardAlpha" operator="out"/>
<feColorMatrix type="matrix" values="0 0 0 0 0 0 0 0 0 0 0 0 0 0 0 0 0 0 0.03 0"/>
<feBlend mode="normal" in2="effect1_dropShadow_124_1622" result="effect2_dropShadow_124_1622"/>
<feBlend mode="normal" in="SourceGraphic" in2="effect2_dropShadow_124_1622" result="shape"/>
</filter>
<filter id="filter7_dd_124_1622" x="227.432" y="590.548" width="145.706" height="145.707" filterUnits="userSpaceOnUse" color-interpolation-filters="sRGB">
<feFlood flood-opacity="0" result="BackgroundImageFix"/>
<feColorMatrix in="SourceAlpha" type="matrix" values="0 0 0 0 0 0 0 0 0 0 0 0 0 0 0 0 0 0 127 0" result="hardAlpha"/>
<feMorphology radius="25" operator="erode" in="SourceAlpha" result="effect1_dropShadow_124_1622"/>
<feOffset/>
<feGaussianBlur stdDeviation="29.2"/>
<feComposite in2="hardAlpha" operator="out"/>
<feColorMatrix type="matrix" values="0 0 0 0 0 0 0 0 0 0 0 0 0 0 0 0 0 0 0.07 0"/>
<feBlend mode="normal" in2="BackgroundImageFix" result="effect1_dropShadow_124_1622"/>
<feColorMatrix in="SourceAlpha" type="matrix" values="0 0 0 0 0 0 0 0 0 0 0 0 0 0 0 0 0 0 127 0" result="hardAlpha"/>
<feMorphology radius="9" operator="dilate" in="SourceAlpha" result="effect2_dropShadow_124_1622"/>
<feOffset/>
<feGaussianBlur stdDeviation="5.35"/>
<feComposite in2="hardAlpha" operator="out"/>
<feColorMatrix type="matrix" values="0 0 0 0 0 0 0 0 0 0 0 0 0 0 0 0 0 0 0.03 0"/>
<feBlend mode="normal" in2="effect1_dropShadow_124_1622" result="effect2_dropShadow_124_1622"/>
<feBlend mode="normal" in="SourceGraphic" in2="effect2_dropShadow_124_1622" result="shape"/>
</filter>
<linearGradient id="paint0_linear_124_1622" x1="321.831" y1="734.545" x2="542.33" y2="140.109" gradientUnits="userSpaceOnUse">
<stop stop-color="#00C385"/>
<stop offset="1" stop-color="#0073E2"/>
</linearGradient>
<linearGradient id="paint1_linear_124_1622" x1="326.597" y1="715.745" x2="529.922" y2="167.608" gradientUnits="userSpaceOnUse">
<stop stop-color="#00C385"/>
<stop offset="1" stop-color="#0073E2"/>
</linearGradient>
<linearGradient id="paint2_linear_124_1622" x1="329.709" y1="697.353" x2="515.028" y2="197.758" gradientUnits="userSpaceOnUse">
<stop stop-color="#00C385"/>
<stop offset="1" stop-color="#0073E2"/>
</linearGradient>
<linearGradient id="paint3_linear_124_1622" x1="332.568" y1="679.12" x2="499.531" y2="229.009" gradientUnits="userSpaceOnUse">
<stop stop-color="#00C385"/>
<stop offset="1" stop-color="#0073E2"/>
</linearGradient>
<linearGradient id="paint4_linear_124_1622" x1="335.35" y1="661.371" x2="483.99" y2="260.654" gradientUnits="userSpaceOnUse">
<stop stop-color="#00C385"/>
<stop offset="1" stop-color="#0073E2"/>
</linearGradient>
<linearGradient id="paint5_linear_124_1622" x1="339.224" y1="643.277" x2="473.525" y2="281.219" gradientUnits="userSpaceOnUse">
<stop stop-color="#00C385"/>
<stop offset="1" stop-color="#0073E2"/>
</linearGradient>
<linearGradient id="paint6_linear_124_1622" x1="344.426" y1="624.064" x2="462.663" y2="305.312" gradientUnits="userSpaceOnUse">
<stop stop-color="#00C385"/>
<stop offset="1" stop-color="#0073E2"/>
</linearGradient>
<linearGradient id="paint7_linear_124_1622" x1="351.735" y1="604.267" x2="453.684" y2="329.422" gradientUnits="userSpaceOnUse">
<stop stop-color="#00C385"/>
<stop offset="1" stop-color="#0073E2"/>
</linearGradient>
<linearGradient id="paint8_linear_124_1622" x1="358.135" y1="585.053" x2="444.188" y2="353.065" gradientUnits="userSpaceOnUse">
<stop stop-color="#00C385"/>
<stop offset="1" stop-color="#0073E2"/>
</linearGradient>
<linearGradient id="paint9_linear_124_1622" x1="365.339" y1="567.872" x2="437.163" y2="374.243" gradientUnits="userSpaceOnUse">
<stop stop-color="#00C385"/>
<stop offset="1" stop-color="#0073E2"/>
</linearGradient>
<linearGradient id="paint10_linear_124_1622" x1="321.792" y1="416.6" x2="525.467" y2="445.507" gradientUnits="userSpaceOnUse">
<stop stop-color="#CECBFC"/>
<stop offset="1" stop-color="#A0F3DF"/>
</linearGradient>
<clipPath id="clip0_124_1622">
<rect width="135" height="18" fill="white" transform="translate(338 458)"/>
</clipPath>
</defs>
</svg>
