<svg id="Layer_1" data-name="Layer 1" xmlns="http://www.w3.org/2000/svg" xmlns:xlink="http://www.w3.org/1999/xlink" viewBox="0 0 868 872"><defs><style>.cls-1{fill:#fff;}.cls-2{fill:none;}.cls-3{opacity:0.22;}.cls-4{mask:url(#mask);}.cls-5{fill:url(#linear-gradient);}.cls-6{fill:url(#linear-gradient-2);}.cls-7{fill:url(#linear-gradient-3);}.cls-8{fill:url(#linear-gradient-4);}.cls-9{fill:url(#linear-gradient-5);}.cls-10{fill:url(#linear-gradient-6);}.cls-11{fill:url(#linear-gradient-7);}.cls-12{fill:url(#linear-gradient-8);}.cls-13{fill:url(#linear-gradient-9);}.cls-14{fill:url(#linear-gradient-10);}.cls-15{fill:url(#linear-gradient-11);}.cls-16{clip-path:url(#clip-path);}.cls-17{fill:#454183;}.cls-18{fill:#59c1b0;}.cls-19{fill:#452c98;}.cls-20{fill:#0073e2;}.cls-21{fill:#c28540;}.cls-22{fill:#c2b8ff;}.cls-23{fill:#ff6d4b;}.cls-24{fill:#201b21;}</style><mask id="mask" x="-108.02" y="-115.75" width="1100.14" height="1105.5" maskUnits="userSpaceOnUse"><g id="mask0_124_1622" data-name="mask0 124 1622"><path class="cls-1" d="M-108,692.94,692.14,989.75l300-808.69L192-115.75Z"/></g></mask><linearGradient id="linear-gradient" x1="300.29" y1="55.83" x2="580.04" y2="809.99" gradientTransform="matrix(1, 0, 0, -1, 0, 872)" gradientUnits="userSpaceOnUse"><stop offset="0" stop-color="#00c385"/><stop offset="1" stop-color="#0073e2"/></linearGradient><linearGradient id="linear-gradient-2" x1="306.34" y1="79.68" x2="564.3" y2="775.1" xlink:href="#linear-gradient"/><linearGradient id="linear-gradient-3" x1="310.28" y1="103.01" x2="545.4" y2="736.85" xlink:href="#linear-gradient"/><linearGradient id="linear-gradient-4" x1="313.91" y1="126.15" x2="525.74" y2="697.2" xlink:href="#linear-gradient"/><linearGradient id="linear-gradient-5" x1="317.44" y1="148.66" x2="506.02" y2="657.06" xlink:href="#linear-gradient"/><linearGradient id="linear-gradient-6" x1="322.36" y1="171.62" x2="492.75" y2="630.97" xlink:href="#linear-gradient"/><linearGradient id="linear-gradient-7" x1="328.96" y1="196" x2="478.96" y2="600.4" xlink:href="#linear-gradient"/><linearGradient id="linear-gradient-8" x1="338.23" y1="221.11" x2="467.57" y2="569.81" xlink:href="#linear-gradient"/><linearGradient id="linear-gradient-9" x1="346.35" y1="245.49" x2="455.53" y2="539.81" xlink:href="#linear-gradient"/><linearGradient id="linear-gradient-10" x1="355.49" y1="267.29" x2="446.61" y2="512.95" xlink:href="#linear-gradient"/><linearGradient id="linear-gradient-11" x1="292.66" y1="405.81" x2="551.06" y2="369.13" gradientTransform="matrix(1, 0, 0, -1, 0, 872)" gradientUnits="userSpaceOnUse"><stop offset="0" stop-color="#cecbfc"/><stop offset="1" stop-color="#a0f3df"/></linearGradient><clipPath id="clip-path"><rect class="cls-2" x="320.8" y="465.32" width="171.28" height="22.84"/></clipPath></defs><g class="cls-3"><g class="cls-4"><path class="cls-5" d="M583,63.1c37.79,14,59.43,59,80.41,102.41a478.93,478.93,0,0,0,28.18,53.06,235.19,235.19,0,0,0,34.31,38.24c16.19,15.59,33.09,31.69,41.45,51.31,9.09,20.72,9.66,44.76,10.23,68.09A234.86,234.86,0,0,0,783.37,432a367.34,367.34,0,0,0,15.32,41.1c13.75,32.88,28.22,66.93,15.19,102.05-34.76,97.18-110.87,179-209,225.51s-206.23,52-303.43,15.92C205.75,781.1,125.53,704.79,81,607S31.28,397.56,67.1,301.16c32-86.35,113.31-213.08,205.38-208.26a254.56,254.56,0,0,1,53.32,10.32c25.19,6.88,49,13.38,77.46,8.28,22.45-4,46.38-15.18,69.32-25.57,37.47-17.25,76.18-35.07,109.61-23.12ZM302.31,814.4c96.87,35.93,204.06,30.36,301.83-15.73s173-127.82,207.66-224.25c12.33-34.28-1.75-67.67-15.34-100.1A366.42,366.42,0,0,1,781,432.91a233.13,233.13,0,0,1-5.85-56.43c-.54-23.06-1.11-46.9-10.06-67.18-8.41-19.12-24.89-35.14-41-50.55A237.12,237.12,0,0,1,689.55,220a478.51,478.51,0,0,1-28.34-53.31C640.47,123.66,619,79.17,582.1,65.49l-.79-.29c-32.53-11.62-70.87,6.08-107.92,23-23.22,10.8-47,21.4-69.88,25.87-29,5.17-53.06-1.35-78.49-8.26a243.5,243.5,0,0,0-52.83-10.27c-91-4.87-171.37,120.9-203.23,206.59C33.41,398,38.39,508.78,82.79,606.19S207.14,779.09,302.31,814.4Z"/><path class="cls-6" d="M572.69,100c34.18,12.68,55.68,50.57,76.52,87.31C657,201,664.35,214,672.28,225.66A306.22,306.22,0,0,0,703,261.6c16.2,17.15,33,34.82,42,55.67s11,45.45,12.89,68.88a292.54,292.54,0,0,0,6.84,50.64c2.7,10,5.78,20,9,29.75,10.11,31.46,20.66,64,8.93,96.81A386.7,386.7,0,0,1,583.83,780,351.15,351.15,0,0,1,310,793.68c-88.31-32.76-163.1-105-205.2-198.3C64,504.93,58.86,404,90.81,318.24c25.86-69.72,100-202.47,194.7-207.62a266.8,266.8,0,0,1,62.66,6.92c23.11,4.36,47,8.89,72,5.92a344.51,344.51,0,0,0,55.58-13.57C508.82,99.82,543,89.52,571.82,99.75ZM310.82,791.46a349,349,0,0,0,272-13.58A384.55,384.55,0,0,0,780.09,562.66c11.49-32,1.18-64.32-8.93-95.26-3.19-9.73-6.41-19.86-9-29.82a301.26,301.26,0,0,1-6.69-51c-1.72-23.18-3.52-47.15-12.61-68.07s-25.44-38-41.53-54.9a306,306,0,0,1-30.94-36.28c-8-11.72-15.36-24.74-23.19-38.52C626.65,152.46,605.38,115,572,102.6l-.84-.32c-28.29-10.1-61.85.24-94.58,10.24a339.89,339.89,0,0,1-56.29,13.57c-25.4,3-49.45-1.57-72.75-5.94a260.13,260.13,0,0,0-62.38-6.63c-93.39,4.79-166.84,136.83-192.63,206-31.54,85-26.56,185.24,14,275.09C148.59,687,222.91,758.85,310.82,791.46Z"/><path class="cls-7" d="M560.75,140.84l.5.19c34.24,12.7,56.64,45.42,78.38,76.79,7.43,10.72,15.11,21.79,23,31.7,6.66,8.3,14.32,16.32,21.67,24,14.86,15.55,30.23,31.61,39,51.88,9.63,22.23,12,47.18,14.28,71.35,1.24,12.89,2.48,26.3,4.8,38.88,1.12,6.11,2.49,12.45,3.75,18.55,6.72,31.63,13.63,64.3,1.59,96.23-38.94,103.07-92.24,169.22-163,202.09-89,41.4-186.31,48.55-266.61,19.41l-1.68-.63c-77.67-28.81-147.34-97.45-186.79-184C91.4,503.71,85.56,413.23,113.49,339,139.44,269,208,146.14,298.22,128.35c24.56-4.88,48.41.41,71.5,5.54a281.38,281.38,0,0,0,43.55,7.28,334.54,334.54,0,0,0,57.87-3.33C501.68,134.27,533.43,130.71,560.75,140.84ZM316.93,769.12l1.92.71c79.95,29,176.6,22,265.16-19.16,71-33.67,122.35-97.19,161.45-200.86,11.61-31.3,5-63.6-1.65-94.88-1.26-6.11-2.62-12.44-3.79-18.63a385.8,385.8,0,0,1-4.73-39.06c-2.26-23.95-4.66-48.73-14.1-70.62-8.57-19.89-23.82-35.78-38.67-51.19-7.39-7.73-15-15.75-21.78-24.2-7.91-9.93-15.65-21-23.07-31.74-21.5-31.16-43.79-63.31-77.27-76l-.51-.19c-26.8-9.94-58.23-6.39-88.61-2.89A347.13,347.13,0,0,1,413,143.77,287.62,287.62,0,0,1,369,136.42c-22.8-5-46.41-10.29-70.52-5.57-89.24,17.6-157,139.77-183,209.13-27.45,74-21.71,163.53,16,246.48C170.7,672.14,240.06,740.41,317,769Z"/><path class="cls-8" d="M551,184.61c50.69,18.8,127.26,100.11,149.54,149.55,24.64,54.47,30,150.87,11.4,203-26.25,73.53-63.37,153.58-138.68,190.27-84.2,41.15-174.53,49.61-247.17,23l-1.69-.62c-70.23-26-134.32-90.42-171.68-172.6-34.11-74.87-40.15-153.78-16.56-216.51,25-67.5,90.58-188.23,174.7-213.62,27.45-8.2,54.62-.26,81,7.44,10.39,3.08,21.14,6.22,31.72,8.27,15.66,3,32.17,4.81,48.07,6.5,26.69,2.84,54.25,5.75,79.29,14.91ZM324.87,747.72l1.92.71C399,774.56,488.57,766.16,572.45,725.2c74.65-36.15,111.36-115.77,137.42-188.59,18.38-51.46,13-147.48-11.38-201.13-22.3-49.19-98.18-129.79-148.42-148.42l-.39-.15c-24.78-9.19-52.27-11.94-78.77-14.77-16-1.72-32.54-3.46-48.32-6.53-10.63-2.07-21.49-5.26-31.94-8.36-26-7.55-52.83-15.45-79.59-7.37-83.19,25-148,145.05-173.14,212-23.07,62.21-17.34,140.35,16.48,214.66C191.6,657.94,255.21,721.88,324.87,747.72Z"/><path class="cls-9" d="M540.33,227.67A232,232,0,0,1,668.1,350.76C694,407.7,697,469.35,676.58,524.26l-4.22,11.38c-23,62-49.11,132.39-110.74,166.77-55.87,31.08-148,56.61-225.19,28l-2.59-1C278.36,707.8,221.3,652.84,185.16,586c-39-72-48.77-146.1-26.65-203.29,11.33-29.34,72.26-177.54,163.6-210.29,29.53-10.54,57.59.19,84.74,10.58l19.54,7.25c14.36,4.81,29.48,9.64,44.1,14.29,23.54,7.5,47.94,15.32,69.53,23.26ZM337.29,728c76.21,28.4,167.75,3.05,223.24-27.72,61.07-33.87,86.86-103.75,109.63-165.49l4.22-11.39c20.08-54.12,17-115-8.46-171.48A229.88,229.88,0,0,0,539.38,230.23l-.4-.15c-21.57-8-46-15.68-69.47-23.24-14.62-4.65-29.74-9.48-44.16-14.31l-19.65-7.29c-26.86-10-54.59-20.89-83.09-10.55C252.79,199.88,191.72,303,160.42,383.62c-21.85,56.65-12.18,129.9,26.55,201.32,36,66.12,92.52,120.69,147.71,142.2Z"/><path class="cls-10" d="M412.9,211.42a594.72,594.72,0,0,1,72.47,34.71c16,8.6,31.31,16.8,44,22C644.79,316,682.93,397.83,642.62,511.66c-2.7,7.29-5.46,14.75-7.72,22.39-18.54,54.64-37.7,111.11-87,143.74-60.76,40.13-147.64,52.58-206.24,29.74C273,680.74,234.78,616.66,201.56,553.38c-28.64-54.59-41-96.68-20.38-150.6,15.16-39.31,70.79-169.6,151-198.18C356.36,195.82,384.52,200.89,412.9,211.42ZM344.8,705.9c58.07,21.54,142.5,9,201.93-30.38,48.74-32.42,67.64-88.22,86-142.46,2.79-7.51,5.08-15.08,7.67-22.4,39.75-112.17,2.18-193.25-112-240.26-12.79-5.26-28.07-13.45-44.21-22.1-47.66-25.57-106.85-57.37-151.11-41.67C253.83,234.9,198.57,364.36,183.2,403.54c-20.45,53.08-8,94.67,20.26,148.66,34.64,65.36,71.14,126.37,139.37,153Z"/><path class="cls-11" d="M407.91,245.25a398.38,398.38,0,0,1,62.85,32.63,354,354,0,0,0,48.07,25.86l19.88,7.38c33.7,11.91,71.81,25.4,87.92,58.51,18.73,38.09,1.92,83.4-11.59,119.83L611.14,500c-3.76,10.13-7.1,20.87-10.51,31.26-14.6,45.22-29.74,91.92-68.85,122.22-49.45,38.31-125.59,51.18-181.12,30.58-48.88-18.13-105-77.81-133.47-142.09-14.5-32.58-28.3-80.37-12-123,27.2-70.4,73-158.49,136.61-178.29C363.9,233.84,386.06,237.14,407.91,245.25Zm117.4,63.49-6.87-2.55a359.93,359.93,0,0,1-48.75-26.11C430.22,256.44,385.53,229.43,342.5,243c-62.67,19.55-108,107-135.07,176.91-12.61,32.61-8.44,75.6,11.84,120.94,28,63.76,83.58,123.21,132.13,141.21,55,20.39,130.42,7.65,179.5-30.54,38.54-29.8,53.52-76.23,68.05-121.09,3.35-10.41,6.86-21.09,10.53-31.32,1.24-3.36,2.51-6.77,3.82-10.3,13.34-36,30-80.77,11.76-118.08-15.68-32.17-53.5-45.75-86.59-57.24Z"/><path class="cls-12" d="M411.69,281.54a334.84,334.84,0,0,1,52.58,27.15,316,316,0,0,0,45,23.56c6.08,2.26,13.07,4.46,20.54,6.78,26.53,8.29,59.51,18.51,72.06,43.57,13.88,27.87-.17,63.32-11.43,91.78-2.11,5.69-4,10.81-5.8,15.65-3.8,10.25-7.1,21.2-10.41,31.69-12.5,39.91-25.45,81.21-58.6,108.93C473.7,665.85,410,677.53,360.59,659.18L360,659c-46.4-17.21-97.36-70-121.42-124.81-16.71-38.57-19.62-74.23-8-103.79,34.33-87.88,73.57-137.69,119.9-152.23A91.91,91.91,0,0,1,411.69,281.54ZM509.81,335l-1.4-.52a314.74,314.74,0,0,1-45.33-23.74c-35.6-21.3-72.64-42.87-112.22-30.3-45.62,14.35-84.36,63.7-118.4,150.79-14.36,36.63-3.59,75.65,8,102,23.85,54.17,74.31,106.23,120.12,123.49l.62.23c48.72,18.07,111.39,6.61,152.7-28.06,32.64-27.38,45.44-68.28,57.94-108,3.33-10.55,6.74-21.46,10.43-31.75,1.81-4.89,3.77-10.19,5.84-15.76,11.18-28.23,24.93-62.89,11.48-89.83-12.14-23.93-44.57-34.27-70.66-42.33C522.16,339.16,515.61,337.12,509.81,335Z"/><path class="cls-13" d="M422.1,319.79A383.07,383.07,0,0,1,464,339.36c11.73,6,22.8,11.76,33.74,16.14,76.58,30.35,91.56,45.75,62.16,129.31C540,541.4,510.46,609.56,458.19,634.26c-26.51,12.57-56.73,12.69-89.85.41l-.56-.21C325.26,618.69,281.4,575.09,261,528.79c-14.29-32.43-16.39-63.57-6.11-90.07,15.34-39.63,49-107.64,103-123.66C380.09,308.35,401.37,312.1,422.1,319.79Zm-53,312.64c32.55,12.07,62.18,12,88.12-.27,51.47-24.42,80.7-92,100.51-148.16,28.66-81.38,14.07-96.64-60.88-126.19-11.27-4.18-21.9-10.06-33.91-16.2-33.41-17.18-67.92-35-104.51-24.13C305.23,333.29,272,400.85,256.9,439.74c-10.06,25.93-8.1,56.38,6.09,88.25,20.22,45.83,63.58,88.72,105.47,104.46Z"/><path class="cls-14" d="M436.25,355.21c9.8,3.64,19.31,7.88,28.47,11.86,6.81,3,13.28,5.83,19.7,8.21,67.2,26.94,77.15,37.43,52.24,108.73-24.35,69.45-54.67,112.85-90.48,128.9-22.07,9.94-46.47,9.37-72.29-1.5a193.16,193.16,0,0,1-79.7-66.66C271.56,511.1,265.83,476,278,445.64s39.9-83.55,86.72-97.33C389,341.39,413.33,346.71,436.25,355.21Zm-56.2,256.35a83.66,83.66,0,0,0,65.23-.54c35.07-15.8,65.07-58.68,89.16-127.57S550,404.39,483.51,377.73c-6.53-2.43-13-5.46-19.8-8.45-31.76-14-64.59-28.49-98.35-18.48-45.84,13.56-73,66-85.12,96-26.18,64.88,37.39,138.58,94.62,162.72Z"/></g></g><path class="cls-15" d="M466.46,379.45l4.55,1.76c60.16,24.59,66.59,38.53,46,99.65-8.87,26.27-34.25,89.59-78.7,110.67a71.83,71.83,0,0,1-61.12.35C321,568.2,274,505.06,295.82,444.36c11.75-32.83,31.09-55.71,57.46-67.82C383.78,362,423.93,363.1,466.46,379.45Z"/><g class="cls-16"><path class="cls-17" d="M341.57,476.88l-.76-.49.59-.69a5.2,5.2,0,0,0,1.37-3.51,5.13,5.13,0,0,0-.49-2.17,5.72,5.72,0,0,0-1.34-1.79,6.5,6.5,0,0,0-2-1.21,6.69,6.69,0,0,0-2.41-.43H320.8v1a1,1,0,0,0,.34.78,1.2,1.2,0,0,0,.84.31h14.57a4.33,4.33,0,0,1,1.53.28,4.28,4.28,0,0,1,1.26.76,3.76,3.76,0,0,1,.83,1.13,3.25,3.25,0,0,1,.3,1.37,3.16,3.16,0,0,1-.3,1.37,3.89,3.89,0,0,1-.83,1.13,4.12,4.12,0,0,1-1.26.78,4.33,4.33,0,0,1-1.53.28H320.8v1a1,1,0,0,0,.34.76,1.17,1.17,0,0,0,.84.33h14c.51,0,.9,0,1.12,0h.79a4.36,4.36,0,0,1,1.53.27,4.07,4.07,0,0,1,1.24.77,3.65,3.65,0,0,1,.85,1.12,3.32,3.32,0,0,1,.31,1.39,3.2,3.2,0,0,1-.3,1.34,3.88,3.88,0,0,1-.8,1.12,3.61,3.61,0,0,1-1.19.76,4.13,4.13,0,0,1-1.42.32H322a1.24,1.24,0,0,0-.84.3,1,1,0,0,0-.34.76v1h17.64a6.48,6.48,0,0,0,4-1.81,5.61,5.61,0,0,0,1.18-1.72,4.82,4.82,0,0,0,.44-2.05,5,5,0,0,0-.67-2.51A5.74,5.74,0,0,0,341.57,476.88ZM364,469.26c-.4-.38-1.83-1.67-1.83-1.67l-.27-.24-.17-.16h0a2.69,2.69,0,0,0-.71-.43,2.25,2.25,0,0,0-.87-.17h-2l6.46,6a1.33,1.33,0,0,0,.91.35,1.29,1.29,0,0,0,.9-.36L367,472l-.08-.08C365.68,470.78,364.72,469.89,364,469.26Zm15.47-2-10.32,9.54.32.34V487h1.22a1,1,0,0,0,.71-.3.94.94,0,0,0,.31-.68v-8.88l11.36-10.52h-2A2.28,2.28,0,0,0,379.48,467.23Zm35.95-.64H396.34v1a1,1,0,0,0,.33.77,1.29,1.29,0,0,0,.85.3h19.09v-1a1,1,0,0,0-.33-.76A1.25,1.25,0,0,0,415.43,466.59Zm-9,6.18h-1.18v13.14a1,1,0,0,0,.35.75,1.16,1.16,0,0,0,.83.31h1.17V473.84a1,1,0,0,0-.33-.75A1.2,1.2,0,0,0,406.47,472.77Zm66.1,3.39a6.56,6.56,0,0,0,2,1.18,6.7,6.7,0,0,0,2.41.45h1.21v-1a1,1,0,0,0-.37-.77,1.2,1.2,0,0,0-.84-.31,4.42,4.42,0,0,1-1.54-.28,4.12,4.12,0,0,1-1.26-.78,3.54,3.54,0,0,1-.85-1.12,3.22,3.22,0,0,1-.31-1.36,3.29,3.29,0,0,1,.31-1.39,3.37,3.37,0,0,1,.85-1.13,4.38,4.38,0,0,1,1.25-.77,4.1,4.1,0,0,1,1.51-.29h13a1.24,1.24,0,0,0,.85-.3,1,1,0,0,0,.36-.77v-1H477a7,7,0,0,0-2.32.39,6.37,6.37,0,0,0-2,1.19,5.67,5.67,0,0,0-1.38,1.81,5,5,0,0,0-.51,2.23,4.89,4.89,0,0,0,.5,2.17A5.51,5.51,0,0,0,472.57,476.16Zm19,3a5.7,5.7,0,0,0-1.32-1.8,6.14,6.14,0,0,0-2-1.19,6.21,6.21,0,0,0-2.4-.45h-1.24v1a1,1,0,0,0,.34.76,1.28,1.28,0,0,0,.83.3,4.66,4.66,0,0,1,1.66.34,4.37,4.37,0,0,1,1.26.8,3.43,3.43,0,0,1,.8,1.12,3.2,3.2,0,0,1,.28,1.32,3.42,3.42,0,0,1-.29,1.33,3.66,3.66,0,0,1-.81,1.12,4,4,0,0,1-1.19.76,4.33,4.33,0,0,1-1.42.33h-13.8a1.21,1.21,0,0,0-.85.3,1,1,0,0,0-.36.76v1h15.21a6.88,6.88,0,0,0,2.37-.59,6.63,6.63,0,0,0,1.82-1.26,5.82,5.82,0,0,0,1.18-1.74,5,5,0,0,0,.43-2A4.84,4.84,0,0,0,491.58,479.21Z"/><path class="cls-18" d="M453.59,470.07l-.24,0c-.46,0-.88-.08-1.24-.13l-3.64-.53a30.72,30.72,0,0,0-3.47-.32h-.12a24.45,24.45,0,0,0-3,.26c-1.15.16-2.48.35-4,.58-.4.06-.84.11-1.3.14l-.31,0a2.33,2.33,0,0,1-.83-.14,1.78,1.78,0,0,1-1.23-2,1.9,1.9,0,0,1,1.9-1.49h.08a15,15,0,0,1,2.18.23c2.13.33,3.78.58,5.62.72.32,0,.63.05.94.05a8.44,8.44,0,0,0,.87,0c1.94-.15,3.81-.44,5.57-.72a19.94,19.94,0,0,1,2.2-.24h.13a2,2,0,0,1,.9.21,1.91,1.91,0,0,1,1.06,1.45,1.73,1.73,0,0,1-.72,1.56A2.24,2.24,0,0,1,453.59,470.07Zm.65-2.82a1.07,1.07,0,0,1,.22,1.86,1.47,1.47,0,0,1-1,.25c-.45,0-.85-.08-1.18-.13l-3.64-.53a30.78,30.78,0,0,0-3.58-.33,27.09,27.09,0,0,0-3.27.27c-1.16.15-2.49.35-4,.58-.39.06-.79.1-1.22.13a2,2,0,0,1-.81-.07,1.11,1.11,0,0,1,.42-2.16,13.4,13.4,0,0,1,2.11.22c2.09.32,3.76.57,5.68.73a10.48,10.48,0,0,0,1.94,0c1.9-.14,3.77-.42,5.63-.72a18.43,18.43,0,0,1,2.13-.23A1.13,1.13,0,0,1,454.24,467.25Zm-.65,11.2h-.24c-.46-.05-.88-.08-1.24-.14l-3.64-.53a26.66,26.66,0,0,0-3.47-.32h-.12a26.17,26.17,0,0,0-3,.25c-1.15.16-2.48.35-4,.58-.4.07-.84.11-1.3.15h-.31a2.33,2.33,0,0,1-.83-.13,1.79,1.79,0,0,1-1.23-2,1.92,1.92,0,0,1,1.9-1.5h.08a17,17,0,0,1,2.18.24c2.13.33,3.78.57,5.62.73l.94,0c.28,0,.59,0,.87,0,1.94-.16,3.81-.44,5.57-.73.76-.12,1.51-.19,2.2-.24h.13a1.93,1.93,0,0,1,.9.22,1.91,1.91,0,0,1,1.06,1.45A1.74,1.74,0,0,1,455,478,2.17,2.17,0,0,1,453.59,478.45Zm.65-2.81a1.07,1.07,0,0,1,.22,1.86,1.52,1.52,0,0,1-1,.25c-.45,0-.85-.08-1.18-.13l-3.64-.53a28.72,28.72,0,0,0-3.58-.33,23.49,23.49,0,0,0-3.27.27c-1.16.15-2.49.34-4,.58-.39.05-.79.1-1.22.13a2,2,0,0,1-.81-.06,1.12,1.12,0,0,1,.42-2.18,15.24,15.24,0,0,1,2.11.23c2.09.33,3.76.58,5.68.73a12.58,12.58,0,0,0,1.94,0c1.9-.16,3.77-.44,5.63-.74.74-.11,1.45-.19,2.13-.23A1.25,1.25,0,0,1,454.24,475.64Zm-.65,11h-.24l-1.24-.15-3.64-.53a28.45,28.45,0,0,0-3.47-.31h-.12a24.08,24.08,0,0,0-3,.25c-1.14.16-2.48.35-4,.58-.4.06-.84.11-1.3.14l-.31,0a2.33,2.33,0,0,1-.83-.14,1.78,1.78,0,0,1-1.23-2,1.91,1.91,0,0,1,1.9-1.49h.08a15.34,15.34,0,0,1,2.18.24c2.13.32,3.79.57,5.62.72.32,0,.62,0,.93,0a8.64,8.64,0,0,0,.88,0c1.93-.15,3.81-.43,5.57-.72a19.94,19.94,0,0,1,2.2-.24h.13a2.08,2.08,0,0,1,.9.21,1.91,1.91,0,0,1,1.06,1.45,1.73,1.73,0,0,1-.72,1.56A2.24,2.24,0,0,1,453.59,486.66Zm.65-2.82a1.07,1.07,0,0,1,.22,1.86,1.47,1.47,0,0,1-1,.25c-.45,0-.85-.08-1.18-.13l-3.64-.53A30.78,30.78,0,0,0,445,485a25.16,25.16,0,0,0-3.27.27c-1.16.15-2.49.35-4,.58-.39.06-.79.1-1.22.13a2,2,0,0,1-.81-.07,1.11,1.11,0,0,1,.42-2.16,13.78,13.78,0,0,1,2.11.23c2.09.32,3.76.58,5.68.72a10.48,10.48,0,0,0,1.94,0c1.9-.14,3.77-.42,5.63-.72a20.93,20.93,0,0,1,2.13-.23A1.13,1.13,0,0,1,454.24,483.84Z"/></g><circle class="cls-1" cx="382.33" cy="120.62" r="50.05"/><path class="cls-19" d="M373.9,99.67l3.7,3.52a6.74,6.74,0,0,1,2.14,5,7,7,0,0,0,2,4.91l.47.47,4.26-13.82"/><path class="cls-19" d="M361.29,112l5.1-.18a6.66,6.66,0,0,1,5,1.94,6.86,6.86,0,0,0,4.91,1.95H377L370.09,103"/><path class="cls-19" d="M361.29,129.61l3.43-3.71a6.76,6.76,0,0,1,4.91-2.22,6.82,6.82,0,0,0,4.82-2.13l.46-.47-13.9-4"/><path class="cls-19" d="M373.89,141.85l-.27-5.1a6.94,6.94,0,0,1,1.85-5.1,6.91,6.91,0,0,0,1.85-4.91v-.65l-12.6,7.14"/><path class="cls-19" d="M391.51,141.48l-3.8-3.34a6.87,6.87,0,0,1-2.32-4.91,7.34,7.34,0,0,0-2.22-4.82l-.47-.47-3.71,14"/><path class="cls-19" d="M403.56,128.59l-5.1.37a6.52,6.52,0,0,1-5.1-1.76,7.1,7.1,0,0,0-5-1.76h-.65l7.41,12.42"/><path class="cls-19" d="M402.72,111.07l-3.24,3.9a7,7,0,0,1-4.82,2.41,6.63,6.63,0,0,0-4.73,2.31l-.37.47,14.09,3.33"/><path class="cls-19" d="M389.65,99.3l.47,5.1a6.79,6.79,0,0,1-1.67,5.19,7,7,0,0,0-1.67,5l.09.65,12.24-7.7"/><circle class="cls-1" cx="61.61" cy="460.81" r="50.05"/><path class="cls-20" d="M79,447.83H42.14a5.83,5.83,0,0,1,4.57,5.65V486.8a19.2,19.2,0,0,0,5.65-13.68V454.47a1,1,0,0,1,2,0v24.79A19.18,19.18,0,0,0,60,465.58V454.47a1,1,0,0,1,2,0v17.26l5-5a2.09,2.09,0,0,0,.4-.6v-.09a2.93,2.93,0,0,0,.3-1,12.55,12.55,0,0,1,12.49-11.6h4.66Z"/><circle class="cls-1" cx="761.45" cy="625.8" r="50.05"/><path class="cls-21" d="M782.87,618.86H768.39V604.48H754.51a14.38,14.38,0,0,1-14.38,14.38v13.88h14.38v14.38h13.88a14.46,14.46,0,0,1,14.48-14.38Z"/><circle class="cls-1" cx="491.71" cy="610.97" r="50.05" transform="translate(-288 526.64) rotate(-45)"/><path class="cls-22" d="M477.44,597.53h-.56v9h10.94a1,1,0,0,1,.46,1.86l-2.13,1a19.82,19.82,0,0,1-8.71,2.13h-.56v9h10.66a1,1,0,0,1,.46,1.85l-2.22,1a19.24,19.24,0,0,1-8.34,2h-.56v9h10.66l1.2-1.48c5.19-6,11.22-9.18,17.52-9.18h.47v-9H496.07a1,1,0,0,1-.47-1.86l2.23-1a19.37,19.37,0,0,1,8.34-1.94h.46v-9H495.79a1,1,0,0,1-.47-1.86l2.14-1a19.76,19.76,0,0,1,8.71-2.13h.46v-9H496l-1.2,1.48C489.76,594.38,483.65,597.53,477.44,597.53Z"/><circle class="cls-1" cx="594.6" cy="316.2" r="50.05"/><path class="cls-23" d="M594.82,330.43,588.36,324a7.19,7.19,0,0,0-12.3,5.12v8.44h37.52V311.67Z"/><path class="cls-23" d="M594.82,302l6.46,6.46a7.19,7.19,0,0,0,12.3-5.12v-8.43H576.06v25.85Z"/><circle class="cls-1" cx="270.64" cy="321.3" r="44.96"/><path class="cls-24" d="M274,331.8a14.82,14.82,0,0,0-9.06-.53,16.64,16.64,0,0,0-5.65,2.88l-1.22,1-.35.35.78.7c.09,0,.09.08.18.17a4.22,4.22,0,0,0,.61.44l.52.34.52-.43a1.87,1.87,0,0,1,.44-.35,12.34,12.34,0,0,1,5.13-2.61,12.12,12.12,0,0,1,7.4.43,15.42,15.42,0,0,0,11.49-.43l.17-.09.26-.26c0-.09.09-.09.18-.17a12.67,12.67,0,0,0,1.22-1.66l1.74-2.7-2.79,1.57C281.43,332.75,277.69,333.19,274,331.8Z"/><path class="cls-24" d="M262,322.4a12,12,0,0,1,7.4.43c2.79,1.05,9.92,2.53,17.93-4.7l1.31-1.3.08-.09.35-.35-.17-.43a9.72,9.72,0,0,0-.44-1.22l-.43-1.22-.87.87c-.09.17-.26.26-.44.44-3.83,3.91-9.75,7.92-16.54,5.48a14.71,14.71,0,0,0-9.05-.52,18.16,18.16,0,0,0-7.48,4.35v-.09l-1.31,1.39c0,.09-.09.09-.17.18l-.26.26.08.35c.09.43.26.87.35,1.3l.52,1.39.87-1.13c.09-.17.26-.26.35-.43C255.93,325.7,258.45,323.35,262,322.4Z"/><path class="cls-24" d="M253.58,320.83a14.76,14.76,0,0,1,6.7-4.09,12,12,0,0,1,7.4.44c7.83,2.87,14.62-1.83,17.58-4.36l1.13-1.13.44-.35-.35-.52a8.87,8.87,0,0,1-.7-1l-.52-.69-.61.61-.35.35c-3.65,3.48-9.31,7.05-15.75,4.61a14.72,14.72,0,0,0-9.05-.52,19.63,19.63,0,0,0-5.31,2.52l-1.83,1.48-.43.44-.18.17v.26c-.09.61-.09,1.22-.17,1.74l-.09,2.18,1.48-1.57A4.38,4.38,0,0,1,253.58,320.83Z"/><path class="cls-24" d="M276.47,337.72l-.17.52.17-.52c-.26-.09-.43-.18-.7-.27a14.78,14.78,0,0,0-9-.52,15.55,15.55,0,0,0-1.82.61l-2.09,1-.53.26,1.75.61,1.56.52.26.09.26-.09a2.71,2.71,0,0,1,.79-.26,1.32,1.32,0,0,0,.52-.17,12,12,0,0,1,6.79.26c.26.08.43.17.69.26l.44.17.26-.08a11.9,11.9,0,0,0,1.83-.61l2.44-.87-2.53-.61C277.08,337.89,276.73,337.8,276.47,337.72Z"/><path class="cls-24" d="M289.79,319.7,288.48,321l-.52.52c-3.57,3.39-9.31,7.05-15.75,4.61a14.72,14.72,0,0,0-9-.52,17.41,17.41,0,0,0-7.32,4.26l-1.13,1.22-.34.44.34.52a5.69,5.69,0,0,1,.61,1l.52.78.61-.78c.09-.09.26-.27.35-.35a14.26,14.26,0,0,1,7-4.35,12,12,0,0,1,7.4.43,14.64,14.64,0,0,0,6.71.78c4-.43,8-2.69,11-5.22.18-.17.35-.26.52-.43l.26-.26v-.27c0-.52.09-1.13.09-1.65Z"/><path class="cls-24" d="M256.71,311.69l-.26-.52.26.52a14.56,14.56,0,0,1,1.66-.61,12.05,12.05,0,0,1,7.4.44,14.41,14.41,0,0,0,5.13.87,18,18,0,0,0,10.71-3.83l1.3-1.05.44-.35-.79-.6a3.49,3.49,0,0,0-.95-.7l-.52-.35-.44.35c-.17.09-.26.26-.44.35-4.61,3.48-9.22,4.44-13.57,2.78a14.53,14.53,0,0,0-9.4-.43c-.26.09-.53.17-.87.26l-.18.09-.26.26c0,.08-.09.08-.17.17-.35.52-.79,1-1.13,1.48L253,313.34l2.7-1.39A2.92,2.92,0,0,0,256.71,311.69Z"/><path class="cls-24" d="M263.85,305.77l.26.09a14.14,14.14,0,0,0,5.05.87,17.64,17.64,0,0,0,6.61-1.39l2.7-1.31-1.83-.61A8.84,8.84,0,0,0,275,303h-.26l-.26.08c-.26.09-.52.27-.78.35a12.47,12.47,0,0,1-7.75.44l-.78-.26-.26-.09-.27.09a11.17,11.17,0,0,0-1.56.61l-2,.87,2.08.61A1.05,1.05,0,0,1,263.85,305.77Z"/><circle class="cls-1" cx="272.95" cy="725.91" r="50.05"/><path class="cls-18" d="M272.91,705.32v20.24l-4.62-2.64A26.5,26.5,0,0,1,255,700h-3.39v23.15a19.76,19.76,0,0,0,11.2,17.79L273,745.8V725.56l4.61,2.64a26.47,26.47,0,0,1,13.27,23h3.39V728a19.76,19.76,0,0,0-11.2-17.79Z"/></svg>