<svg width="145" height="69" viewBox="0 0 145 69" fill="none" xmlns="http://www.w3.org/2000/svg">
<path d="M17.5812 34.5885L16.9355 34.2848L17.434 33.8625C18.2043 33.2255 18.6008 32.507 18.6008 31.7144C18.6008 31.2551 18.4535 30.8033 18.1816 30.381C17.9098 29.9662 17.5246 29.5959 17.0488 29.2848C16.573 28.9736 16.0066 28.7292 15.3723 28.544C14.7266 28.3662 14.0469 28.2773 13.3332 28.2773H0V28.8773C0 29.0625 0.090625 29.2181 0.283203 29.3514C0.479557 29.4798 0.717448 29.544 0.996875 29.544H13.3332C13.7863 29.544 14.2168 29.6033 14.6246 29.7144C15.0324 29.8329 15.3949 29.9885 15.6895 30.181C15.984 30.3736 16.2219 30.6033 16.3918 30.8699C16.5617 31.1366 16.6523 31.4255 16.6523 31.7144C16.6523 32.0107 16.5617 32.2922 16.3918 32.5514C16.2219 32.8181 15.984 33.0477 15.6895 33.2477C15.3949 33.4477 15.0324 33.6033 14.6246 33.7218C14.2168 33.8329 13.7863 33.8922 13.3332 33.8922C13.235 33.8922 13.152 33.8946 13.084 33.8996C13.0311 33.9045 12.8952 33.907 12.6762 33.907H0V34.4922C0 34.6699 0.090625 34.8329 0.283203 34.9588C0.475781 35.0922 0.713672 35.1588 0.996875 35.1588H10.7277C11.668 35.1588 12.3703 35.1588 12.8234 35.1662C13.2539 35.1736 13.5824 35.1736 13.775 35.1736H14.4434C14.8852 35.1736 15.327 35.2329 15.7348 35.344C16.1426 35.4625 16.4937 35.6181 16.7883 35.8107C17.0828 36.0033 17.3207 36.2329 17.502 36.4996C17.6719 36.7662 17.7625 37.0551 17.7625 37.3514C17.7625 37.6403 17.6719 37.9218 17.5133 38.1736C17.3434 38.4329 17.1168 38.6625 16.8336 38.8625C16.5504 39.0625 16.2105 39.2181 15.8254 39.3292C15.4402 39.4477 15.0438 39.507 14.6246 39.5218H0.996875C0.717448 39.5218 0.479557 39.5835 0.283203 39.707C0.101953 39.8329 0 39.9885 0 40.1736V40.7736H14.9305C15.5875 40.7366 16.2219 40.6181 16.8109 40.4181C17.3887 40.2255 17.8984 39.9662 18.3289 39.6625C18.748 39.3588 19.0879 39.0033 19.3258 38.6107C19.575 38.2181 19.6996 37.7885 19.6996 37.3514C19.6996 36.8107 19.507 36.2922 19.1332 35.8107C18.7594 35.3218 18.2383 34.9144 17.5812 34.5885ZM36.5785 29.9144C36.2387 29.6848 35.0266 28.8922 35.0266 28.8922C34.9133 28.8181 34.8378 28.7687 34.8 28.744C34.7396 28.7045 34.6905 28.6724 34.6527 28.6477H34.6414C34.4602 28.5391 34.26 28.4502 34.041 28.381C33.8145 28.3144 33.5766 28.2773 33.3047 28.2773H31.6168L37.0883 31.9292C37.3035 32.0699 37.5641 32.144 37.8586 32.144C38.1456 32.144 38.3986 32.0699 38.6176 31.9218L39.0934 31.5959L39.0254 31.544C37.9945 30.8477 37.1789 30.2996 36.5785 29.9144ZM49.6738 28.6699L40.9398 34.5218L41.2117 34.7292V40.7736H42.2426C42.4691 40.7736 42.6693 40.7119 42.843 40.5885C43.0167 40.4699 43.1035 40.3317 43.1035 40.1736V34.7292L52.7211 28.2773H51.0105C50.5234 28.2773 50.0703 28.4107 49.6738 28.6699ZM80.1125 28.2773H63.9473V28.8773C63.9473 29.0625 64.0379 29.2181 64.2305 29.344C64.423 29.4625 64.6609 29.5292 64.9441 29.5292H81.1094V28.944C81.1094 28.7613 81.015 28.6057 80.8262 28.4773C80.6298 28.344 80.3919 28.2773 80.1125 28.2773ZM72.5227 32.0699H71.5258V40.1218C71.5258 40.3045 71.624 40.4576 71.8203 40.581C72.0091 40.7094 72.2432 40.7736 72.5227 40.7736H73.5195V32.7218C73.5195 32.544 73.4289 32.3885 73.2363 32.2625C73.0437 32.1366 72.8059 32.0699 72.5227 32.0699ZM128.484 34.144C128.959 34.4477 129.526 34.6922 130.171 34.8699C130.806 35.0477 131.497 35.144 132.211 35.144H133.23V34.5588C133.23 34.3736 133.128 34.2181 132.924 34.0848C132.732 33.9588 132.482 33.8922 132.211 33.8922C131.757 33.8922 131.316 33.8329 130.908 33.7218C130.5 33.6033 130.137 33.4477 129.843 33.2477C129.537 33.0477 129.288 32.8181 129.118 32.5588C128.948 32.2922 128.857 32.0107 128.857 31.7218C128.857 31.4255 128.948 31.1366 129.118 30.8699C129.288 30.6033 129.537 30.3736 129.843 30.181C130.137 29.9885 130.5 29.8255 130.896 29.707C131.304 29.5885 131.735 29.5292 132.177 29.5292H143.188C143.474 29.5292 143.716 29.4675 143.913 29.344C144.116 29.2156 144.218 29.0601 144.218 28.8773V28.2773H132.369C132.324 28.2773 132.279 28.2773 132.233 28.2773C131.554 28.2773 130.896 28.3588 130.273 28.5218C129.616 28.6922 129.039 28.9366 128.54 29.2477C128.053 29.5588 127.657 29.9366 127.373 30.3588C127.09 30.781 126.943 31.2403 126.943 31.7218C126.943 32.181 127.079 32.6329 127.362 33.0551C127.634 33.4699 128.008 33.8403 128.484 34.144ZM144.581 36.0181C144.309 35.5959 143.935 35.2255 143.459 34.9144C142.984 34.6033 142.417 34.3588 141.771 34.181C141.137 33.9959 140.446 33.907 139.732 33.907H138.69V34.507C138.69 34.6897 138.785 34.8452 138.973 34.9736C139.166 35.0922 139.404 35.1588 139.676 35.1588C140.208 35.1736 140.673 35.2403 141.08 35.3662C141.488 35.4922 141.851 35.6551 142.145 35.8551C142.44 36.0477 142.666 36.2848 142.825 36.544C142.984 36.8033 143.063 37.0773 143.063 37.3514C143.063 37.6329 142.972 37.907 142.814 38.1662C142.644 38.4329 142.417 38.6625 142.134 38.8551C141.839 39.0477 141.511 39.2033 141.126 39.3218C140.741 39.4403 140.333 39.507 139.925 39.5218H128.234C127.963 39.5218 127.713 39.581 127.521 39.707C127.317 39.8304 127.215 39.986 127.215 40.1736V40.7736H140.095C140.831 40.7366 141.5 40.6107 142.1 40.4107C142.689 40.2107 143.21 39.944 143.641 39.6403C144.06 39.3292 144.4 38.9662 144.638 38.5736C144.875 38.181 145 37.7662 145 37.3514C145 36.8848 144.864 36.4329 144.581 36.0181Z" fill="#454183"/>
<path d="M112.42 30.4109C112.36 30.4109 112.292 30.4084 112.217 30.4035C111.82 30.3812 111.469 30.3516 111.163 30.322C110.053 30.2035 109.026 30.0948 108.082 29.9961C106.926 29.8775 105.941 29.8109 105.148 29.8035H105.046C104.423 29.8035 103.562 29.8553 102.486 29.959C101.512 30.0553 100.39 30.1738 99.1326 30.3146C98.7928 30.3516 98.4189 30.3812 98.0338 30.4035C97.9431 30.4084 97.8563 30.4109 97.7732 30.4109C97.5013 30.4109 97.2748 30.3812 97.0709 30.3294C96.3119 30.1368 95.8814 29.6257 96.0287 29.0923C96.176 28.559 96.8217 28.1886 97.6373 28.1738H97.7053C98.1017 28.1738 98.7021 28.2183 99.5517 28.3146C101.353 28.522 102.746 28.6701 104.31 28.759C104.574 28.7788 104.838 28.7886 105.103 28.7886C105.34 28.7886 105.601 28.7812 105.839 28.7664C107.481 28.6701 109.067 28.4923 110.551 28.322C111.197 28.2479 111.831 28.1961 112.42 28.1738C112.451 28.1738 112.485 28.1738 112.522 28.1738C112.787 28.1738 113.044 28.2183 113.293 28.3072C113.791 28.4923 114.131 28.8257 114.188 29.1961C114.233 29.559 114.018 29.9072 113.576 30.1516C113.259 30.322 112.874 30.4109 112.42 30.4109ZM112.964 28.6849C113.621 28.922 113.746 29.4998 113.157 29.8257C112.923 29.9491 112.628 30.001 112.273 29.9812C111.888 29.9565 111.556 29.9294 111.276 29.8998C110.159 29.7812 109.132 29.6726 108.195 29.5738C106.994 29.4504 105.982 29.3837 105.159 29.3738C104.495 29.3689 103.573 29.4232 102.395 29.5368C101.413 29.6306 100.288 29.7491 99.0193 29.8923C98.6946 29.9269 98.351 29.9541 97.9885 29.9738C97.7015 29.9886 97.4749 29.9738 97.3088 29.9294C96.2666 29.6627 96.5385 28.6183 97.6599 28.6035C97.9998 28.5985 98.5964 28.643 99.4498 28.7368C101.217 28.9368 102.633 29.0923 104.253 29.1886C104.812 29.2232 105.359 29.2232 105.895 29.1886C107.504 29.0998 109.09 28.9294 110.665 28.7442C111.291 28.6701 111.892 28.6232 112.466 28.6035C112.639 28.5985 112.806 28.6257 112.964 28.6849ZM112.42 35.5516C112.36 35.5516 112.292 35.5516 112.217 35.5516C111.82 35.522 111.469 35.4998 111.163 35.4627C110.053 35.3442 109.026 35.2356 108.082 35.1368C106.926 35.0183 105.941 34.9516 105.148 34.9442H105.046C104.423 34.9442 103.562 34.996 102.486 35.0998C101.512 35.196 100.39 35.3146 99.1326 35.4553C98.7928 35.4923 98.4189 35.522 98.0338 35.5442C97.9431 35.5491 97.8563 35.5516 97.7732 35.5516C97.5013 35.5516 97.2748 35.5294 97.0709 35.4701C96.3119 35.2775 95.8814 34.7664 96.0287 34.2331C96.176 33.6998 96.8217 33.3294 97.6373 33.3146H97.7053C98.1017 33.3146 98.7021 33.3664 99.5517 33.4627C101.353 33.6627 102.746 33.8109 104.31 33.9072C104.574 33.922 104.838 33.9294 105.103 33.9294C105.34 33.9294 105.601 33.922 105.839 33.9072C107.481 33.8109 109.067 33.6405 110.551 33.4627C111.197 33.3886 111.831 33.3442 112.42 33.3146C112.451 33.3146 112.485 33.3146 112.522 33.3146C112.787 33.3146 113.044 33.359 113.293 33.4479C113.791 33.6405 114.131 33.9664 114.188 34.3368C114.233 34.6998 114.018 35.0479 113.576 35.2923C113.259 35.4701 112.874 35.5516 112.42 35.5516ZM112.964 33.8257C113.621 34.0627 113.746 34.6405 113.157 34.9664C112.923 35.0899 112.628 35.1417 112.273 35.122C111.888 35.0973 111.556 35.0701 111.276 35.0405C110.159 34.922 109.132 34.8133 108.195 34.7146C106.994 34.5911 105.982 34.5244 105.159 34.5146C104.495 34.5096 103.573 34.564 102.395 34.6775C101.413 34.7714 100.288 34.8899 99.0193 35.0331C98.6946 35.0677 98.351 35.0948 97.9885 35.1146C97.7015 35.1343 97.4749 35.122 97.3088 35.0775C96.2666 34.8035 96.5385 33.7664 97.6599 33.7442C97.9998 33.7393 98.5964 33.7862 99.4498 33.8849C101.217 34.0849 102.633 34.2405 104.253 34.3294C104.812 34.364 105.359 34.3664 105.895 34.3368C107.504 34.2405 109.09 34.0701 110.665 33.8849C111.291 33.8158 111.892 33.7689 112.466 33.7442C112.639 33.7393 112.806 33.7664 112.964 33.8257ZM112.42 40.5812C112.36 40.5812 112.292 40.5812 112.217 40.5812C111.82 40.5516 111.469 40.522 111.163 40.4923C110.053 40.3738 109.026 40.2652 108.082 40.1664C106.926 40.0479 105.929 39.9812 105.148 39.9738H105.046C104.423 39.9738 103.562 40.0257 102.486 40.1294C101.523 40.2257 100.39 40.3442 99.1326 40.4849C98.7928 40.522 98.4189 40.5516 98.0338 40.5738C97.9431 40.5788 97.8563 40.5812 97.7732 40.5812C97.5013 40.5812 97.2748 40.5516 97.0709 40.4998C96.3119 40.3072 95.8814 39.796 96.0287 39.2627C96.176 38.7294 96.8217 38.359 97.6373 38.3442H97.7053C98.1017 38.3442 98.7021 38.396 99.5517 38.4923C101.353 38.6923 102.758 38.8405 104.31 38.9368C104.574 38.9516 104.834 38.959 105.091 38.959C105.34 38.959 105.59 38.9516 105.839 38.9368C107.47 38.8405 109.067 38.6701 110.551 38.4923C111.197 38.4183 111.831 38.3664 112.42 38.3442C112.451 38.3442 112.485 38.3442 112.522 38.3442C112.783 38.3442 113.044 38.3886 113.293 38.4775C113.791 38.6627 114.131 38.996 114.188 39.3664C114.233 39.7294 114.018 40.0775 113.576 40.322C113.259 40.4923 112.874 40.5812 112.42 40.5812ZM112.964 38.8553C113.621 39.0923 113.746 39.6701 113.157 39.996C112.923 40.1195 112.628 40.1714 112.273 40.1516C111.888 40.1269 111.556 40.0998 111.276 40.0701C110.159 39.9516 109.132 39.843 108.195 39.7442C106.994 39.6207 105.982 39.5541 105.159 39.5442C104.495 39.5393 103.573 39.5936 102.395 39.7072C101.413 39.801 100.288 39.9195 99.0193 40.0627C98.6946 40.0973 98.351 40.1244 97.9885 40.1442C97.7015 40.159 97.4749 40.1442 97.3088 40.0998C96.2666 39.8331 96.5385 38.7886 97.6599 38.7738C97.9998 38.7689 98.5964 38.8158 99.4498 38.9146C101.217 39.1146 102.633 39.2701 104.253 39.359C104.812 39.3936 105.359 39.3936 105.895 39.359C107.504 39.2701 109.09 39.0998 110.665 38.9146C111.291 38.8454 111.892 38.7985 112.466 38.7738C112.639 38.7689 112.806 38.796 112.964 38.8553Z" fill="#59C1B0"/>
</svg>
