<svg width="42" height="40" viewBox="0 0 42 40" fill="none" xmlns="http://www.w3.org/2000/svg">
<g filter="url(#filter0_b_124_2043)">
<rect width="42" height="40" rx="20" fill="white" fill-opacity="0.55"/>
</g>
<path d="M28.625 20.1875C28.625 24.625 25.5938 27.75 21.125 27.75C16.8125 27.75 13.375 24.3125 13.375 20C13.375 15.7188 16.8125 12.25 21.125 12.25C23.1875 12.25 24.9688 13.0312 26.3125 14.2812L24.1875 16.3125C21.4375 13.6562 16.3125 15.6562 16.3125 20C16.3125 22.7188 18.4688 24.9062 21.125 24.9062C24.1875 24.9062 25.3438 22.7188 25.5 21.5625H21.125V18.9062H28.5C28.5625 19.3125 28.625 19.6875 28.625 20.1875Z" fill="#454183"/>
<defs>
<filter id="filter0_b_124_2043" x="-5.5" y="-5.5" width="53" height="51" filterUnits="userSpaceOnUse" color-interpolation-filters="sRGB">
<feFlood flood-opacity="0" result="BackgroundImageFix"/>
<feGaussianBlur in="BackgroundImageFix" stdDeviation="2.75"/>
<feComposite in2="SourceAlpha" operator="in" result="effect1_backgroundBlur_124_2043"/>
<feBlend mode="normal" in="SourceGraphic" in2="effect1_backgroundBlur_124_2043" result="shape"/>
</filter>
</defs>
</svg>
