<svg width="59" height="58" viewBox="0 0 59 58" fill="none" xmlns="http://www.w3.org/2000/svg">
<path fill-rule="evenodd" clip-rule="evenodd" d="M15.6198 13.2063L26.4917 9.19983C31.2599 7.44272 35.8275 7.8883 37.6658 12.6571L47.6339 39.2838C47.7441 39.5838 47.7796 39.9057 47.7375 40.2214C47.6722 40.7351 47.4008 41.1986 46.9858 41.5054C46.5707 41.8123 46.0476 41.9361 45.5365 41.8485L31.9907 40.3651L18.3771 38.8891C18.3729 38.8887 18.3688 38.8884 18.3647 38.888L31.9706 40.3632L22.6681 50.2674C21.9796 51.0526 20.7858 51.1377 19.9821 50.4588C19.7402 50.2413 19.5536 49.9694 19.4378 49.6658L14.6688 36.9272C15.1285 38.1551 16.0926 38.6772 18.1736 38.8711C16.1086 38.6756 15.1499 38.1529 14.692 36.9297L9.49197 23.0395C7.70028 18.2535 10.8672 14.9577 15.6198 13.2063Z" fill="url(#paint0_linear_261_2643)"/>
<g opacity="0.5" filter="url(#filter0_f_261_2643)">
<path d="M29.998 15.5596L20.0966 18.1972C16.5052 19.1539 14.9775 21.8015 15.943 25.3838L19.2131 37.5164C20.1944 41.1573 22.8363 42.6439 26.4278 41.6872L36.3292 39.0497C39.9785 38.0775 41.4597 35.4926 40.4784 31.8516L37.2084 19.7191C36.2429 16.1368 33.6474 14.5875 29.998 15.5596Z" fill="#66B1B5"/>
</g>
<g filter="url(#filter1_b_261_2643)">
<path fill-rule="evenodd" clip-rule="evenodd" d="M34.697 49.8717L22.0708 56.7484C21.0627 57.2692 19.8208 56.9005 19.265 55.9154C19.1042 55.6103 19.0175 55.272 19.0117 54.9275V24.4571C19.0117 18.6458 23.0061 16.3213 28.7541 16.3213H42.2571C47.8298 16.3213 51.9995 18.4908 51.9995 24.0697V54.9275C51.9995 55.4772 51.7799 56.0044 51.3889 56.3931C50.9979 56.7818 50.4676 57.0002 49.9147 57.0002C49.562 56.9946 49.2153 56.9085 48.9015 56.7484L36.1973 49.8717C35.7292 49.6203 35.1651 49.6203 34.697 49.8717Z" fill="url(#paint1_linear_261_2643)" fill-opacity="0.2"/>
<path d="M22.3003 57.1926L22.3004 57.1927L22.31 57.1875L34.9336 50.3122C34.9339 50.312 34.9343 50.3118 34.9346 50.3116C35.2548 50.1401 35.6407 50.1403 35.9607 50.3122C35.9607 50.3122 35.9607 50.3122 35.9608 50.3122L48.6634 57.1881L48.6634 57.1882L48.6742 57.1938C49.0562 57.3886 49.4779 57.4934 49.9068 57.5001L49.9068 57.5002H49.9147C50.5993 57.5002 51.2564 57.2299 51.7414 56.7477C52.2265 56.2655 52.4995 55.6108 52.4995 54.9275V24.0697C52.4995 21.1379 51.3939 19.0405 49.5083 17.6963C47.6503 16.3717 45.0956 15.8213 42.2571 15.8213H28.7541C25.8251 15.8213 23.2638 16.4116 21.4245 17.8122C19.5614 19.2309 18.5117 21.425 18.5117 24.4571V54.9275H18.5116L18.5118 54.9359C18.5189 55.3588 18.6254 55.7741 18.8227 56.1485L18.8295 56.1611C19.5182 57.3817 21.0545 57.8363 22.3003 57.1926Z" stroke="url(#paint2_linear_261_2643)" stroke-linecap="round" stroke-linejoin="round"/>
</g>
<g filter="url(#filter2_bd_261_2643)">
<path d="M41.8975 29.5524H28.9239C28.1764 29.5524 27.5703 28.877 27.5703 28.0438C27.5703 27.2106 28.1764 26.5352 28.9239 26.5352H41.8975C42.6451 26.5352 43.2512 27.2106 43.2512 28.0438C43.2512 28.877 42.6451 29.5524 41.8975 29.5524Z" fill="url(#paint3_linear_261_2643)"/>
<path d="M41.8975 29.3524H28.9239C28.3067 29.3524 27.7703 28.7875 27.7703 28.0438C27.7703 27.3001 28.3067 26.7352 28.9239 26.7352H41.8975C42.5148 26.7352 43.0512 27.3001 43.0512 28.0438C43.0512 28.7875 42.5148 29.3524 41.8975 29.3524Z" stroke="url(#paint4_linear_261_2643)" stroke-width="0.4"/>
</g>
<defs>
<filter id="filter0_f_261_2643" x="0.660156" y="0.275391" width="55.1133" height="56.6953" filterUnits="userSpaceOnUse" color-interpolation-filters="sRGB">
<feFlood flood-opacity="0" result="BackgroundImageFix"/>
<feBlend mode="normal" in="SourceGraphic" in2="BackgroundImageFix" result="shape"/>
<feGaussianBlur stdDeviation="7.5" result="effect1_foregroundBlur_261_2643"/>
</filter>
<filter id="filter1_b_261_2643" x="-5.98828" y="-8.67871" width="82.9883" height="90.6787" filterUnits="userSpaceOnUse" color-interpolation-filters="sRGB">
<feFlood flood-opacity="0" result="BackgroundImageFix"/>
<feGaussianBlur in="BackgroundImageFix" stdDeviation="12"/>
<feComposite in2="SourceAlpha" operator="in" result="effect1_backgroundBlur_261_2643"/>
<feBlend mode="normal" in="SourceGraphic" in2="effect1_backgroundBlur_261_2643" result="shape"/>
</filter>
<filter id="filter2_bd_261_2643" x="12.5703" y="11.5352" width="45.6797" height="33.0176" filterUnits="userSpaceOnUse" color-interpolation-filters="sRGB">
<feFlood flood-opacity="0" result="BackgroundImageFix"/>
<feGaussianBlur in="BackgroundImageFix" stdDeviation="7.5"/>
<feComposite in2="SourceAlpha" operator="in" result="effect1_backgroundBlur_261_2643"/>
<feColorMatrix in="SourceAlpha" type="matrix" values="0 0 0 0 0 0 0 0 0 0 0 0 0 0 0 0 0 0 127 0" result="hardAlpha"/>
<feOffset dx="5" dy="5"/>
<feGaussianBlur stdDeviation="5"/>
<feColorMatrix type="matrix" values="0 0 0 0 0.407843 0 0 0 0 0.701961 0 0 0 0 0.709804 0 0 0 1 0"/>
<feBlend mode="normal" in2="effect1_backgroundBlur_261_2643" result="effect2_dropShadow_261_2643"/>
<feBlend mode="normal" in="SourceGraphic" in2="effect2_dropShadow_261_2643" result="shape"/>
</filter>
<linearGradient id="paint0_linear_261_2643" x1="21.0936" y1="11.1851" x2="34.0789" y2="46.3514" gradientUnits="userSpaceOnUse">
<stop stop-color="#9EDADD"/>
<stop offset="1" stop-color="#67B2B5"/>
</linearGradient>
<linearGradient id="paint1_linear_261_2643" x1="19.0117" y1="16.3213" x2="58.6933" y2="24.4921" gradientUnits="userSpaceOnUse">
<stop stop-color="#83E9FF"/>
<stop offset="0.453125" stop-color="#85A0FF"/>
</linearGradient>
<linearGradient id="paint2_linear_261_2643" x1="24.2628" y1="21.0604" x2="50.8074" y2="47.7207" gradientUnits="userSpaceOnUse">
<stop stop-color="white" stop-opacity="0.25"/>
<stop offset="1" stop-color="white" stop-opacity="0"/>
</linearGradient>
<linearGradient id="paint3_linear_261_2643" x1="42.1394" y1="27.08" x2="25.1419" y2="29.9602" gradientUnits="userSpaceOnUse">
<stop stop-color="white"/>
<stop offset="1" stop-color="white" stop-opacity="0.2"/>
</linearGradient>
<linearGradient id="paint4_linear_261_2643" x1="30.0664" y1="26.8867" x2="30.6638" y2="30.7317" gradientUnits="userSpaceOnUse">
<stop stop-color="white" stop-opacity="0.25"/>
<stop offset="1" stop-color="white" stop-opacity="0"/>
</linearGradient>
</defs>
</svg>
