<svg width="51" height="51" viewBox="0 0 51 51" fill="none" xmlns="http://www.w3.org/2000/svg">
<g clip-path="url(#clip0_261_2660)">
<path d="M31.9823 25.5007C33.8192 25.5007 35.3083 24.0116 35.3083 22.1747C35.3083 20.3378 33.8192 18.8486 31.9823 18.8486C30.1454 18.8486 28.6562 20.3378 28.6562 22.1747C28.6562 24.0116 30.1454 25.5007 31.9823 25.5007Z" fill="url(#paint0_linear_261_2660)"/>
<path d="M24.9285 29.2293C25.0344 29.3316 25.1189 29.454 25.177 29.5892C25.2351 29.7245 25.2657 29.87 25.2669 30.0172C25.2682 30.1644 25.2402 30.3104 25.1844 30.4466C25.1287 30.5829 25.0464 30.7067 24.9423 30.8108C24.8382 30.9149 24.7144 30.9972 24.5781 31.0529C24.4419 31.1087 24.2959 31.1367 24.1487 31.1354C24.0015 31.1342 23.856 31.1036 23.7207 31.0455C23.5855 30.9874 23.4631 30.9029 23.3608 30.797C21.0739 28.5099 19.7891 25.408 19.7891 22.1737C19.7891 18.9393 21.0739 15.8375 23.3608 13.5504C23.4631 13.4445 23.5855 13.36 23.7207 13.3019C23.856 13.2438 24.0015 13.2132 24.1487 13.212C24.2959 13.2107 24.4419 13.2387 24.5781 13.2945C24.7144 13.3502 24.8382 13.4325 24.9423 13.5366C25.0464 13.6407 25.1287 13.7645 25.1844 13.9008C25.2402 14.037 25.2682 14.183 25.2669 14.3302C25.2657 14.4774 25.2351 14.6229 25.177 14.7582C25.1189 14.8934 25.0344 15.0158 24.9285 15.1181C24.002 16.0446 23.267 17.1446 22.7655 18.3552C22.264 19.5658 22.0059 20.8633 22.0059 22.1737C22.0059 23.4841 22.264 24.7816 22.7655 25.9922C23.267 27.2028 24.002 28.3028 24.9285 29.2293ZM40.6075 30.797C40.3984 30.999 40.1183 31.1107 39.8276 31.1082C39.5369 31.1057 39.2589 30.9891 39.0533 30.7835C38.8478 30.578 38.7312 30.2999 38.7286 30.0092C38.7261 29.7185 38.8378 29.4384 39.0398 29.2293C39.9664 28.3028 40.7014 27.2028 41.2028 25.9922C41.7043 24.7816 41.9624 23.4841 41.9624 22.1737C41.9624 20.8633 41.7043 19.5658 41.2028 18.3552C40.7014 17.1446 39.9664 16.0446 39.0398 15.1181C38.9339 15.0158 38.8495 14.8934 38.7914 14.7582C38.7332 14.6229 38.7027 14.4774 38.7014 14.3302C38.7001 14.183 38.7282 14.037 38.7839 13.9008C38.8396 13.7645 38.922 13.6407 39.0261 13.5366C39.1302 13.4325 39.2539 13.3502 39.3902 13.2945C39.5265 13.2387 39.6724 13.2107 39.8197 13.212C39.9669 13.2132 40.1123 13.2438 40.2476 13.3019C40.3829 13.36 40.5052 13.4445 40.6075 13.5504C42.8945 15.8375 44.1793 18.9393 44.1793 22.1737C44.1793 25.408 42.8945 28.5099 40.6075 30.797Z" fill="url(#paint1_linear_261_2660)"/>
<path d="M18.6797 51.0008H33.3686L33.0925 27.6076C34.4385 27.3329 35.6345 26.5681 36.4487 25.4617C37.2629 24.3552 37.6373 22.9858 37.4992 21.6191C37.3611 20.2523 36.7205 18.9854 35.7014 18.0642C34.6824 17.1429 33.3576 16.6328 31.9839 16.6328C30.6101 16.6328 29.2853 17.1429 28.2663 18.0642C27.2472 18.9854 26.6066 20.2523 26.4685 21.6191C26.3305 22.9858 26.7048 24.3552 27.519 25.4617C28.3332 26.5681 29.5292 27.3329 30.8752 27.6076V38.8053C30.8714 42.0386 29.5853 45.1383 27.299 47.4246C25.0127 49.7109 21.913 50.997 18.6797 51.0008Z" fill="url(#paint2_linear_261_2660)"/>
<g filter="url(#filter0_bi_261_2660)">
<path d="M38.6377 51C39.2257 51 39.7897 50.7664 40.2056 50.3506C40.6214 49.9347 40.855 49.3707 40.855 48.7826V39.8833C44.6368 37.0499 47.4135 33.0815 48.7795 28.5578C50.1456 24.0341 50.0293 19.1922 48.4478 14.7392C46.8663 10.2863 43.9024 6.45573 39.989 3.80709C36.0756 1.15846 31.4178 -0.169462 26.6961 0.0173202C14.6968 0.469662 5.37725 10.7105 5.37725 22.7187V24.16L1.46804 32.9518C1.23664 33.4731 1.21501 34.0635 1.40765 34.6003C1.60029 35.1372 1.99238 35.5791 2.50244 35.8344L5.37725 37.2723V45.4566C5.37725 46.9268 5.96128 48.3368 7.00087 49.3764C8.04046 50.416 9.45045 51 10.9207 51H38.6377Z" fill="url(#paint3_linear_261_2660)" fill-opacity="0.2"/>
<path d="M40.705 39.8082L40.7651 39.7632C44.5213 36.949 47.2792 33.0075 48.6359 28.5145C49.9927 24.0214 49.8773 19.2122 48.3065 14.7894C46.7356 10.3666 43.7918 6.56202 39.9049 3.93131C36.018 1.30061 31.3918 -0.0183142 26.702 0.167203L26.7017 0.167214C14.7878 0.616337 5.52725 10.7863 5.52725 22.7187V24.16V24.1918L5.51431 24.2209L1.60514 33.0126L40.705 39.8082ZM40.705 39.8082V39.8833M40.705 39.8082V39.8833M40.705 39.8833V48.7826C40.705 49.3309 40.4872 49.8568 40.0995 50.2445C39.7118 50.6322 39.186 50.85 38.6377 50.85H10.9207C9.49023 50.85 8.1184 50.2818 7.10694 49.2703C6.09548 48.2589 5.52725 46.887 5.52725 45.4566V37.2723V37.1796M40.705 39.8833L5.52725 37.1796M5.52725 37.1796L5.44435 37.1382M5.52725 37.1796L5.44435 37.1382M5.44435 37.1382L2.56956 35.7002C2.09401 35.4622 1.72845 35.0502 1.54884 34.5497C1.36924 34.0492 1.38939 33.4987 1.6051 33.0127L5.44435 37.1382Z" stroke="url(#paint4_linear_261_2660)" stroke-opacity="0.1" stroke-width="0.3"/>
</g>
<g filter="url(#filter1_i_261_2660)">
<path d="M24.9324 29.2293C25.0383 29.3316 25.1228 29.454 25.1809 29.5892C25.239 29.7245 25.2696 29.87 25.2709 30.0172C25.2721 30.1644 25.2441 30.3104 25.1883 30.4466C25.1326 30.5829 25.0503 30.7067 24.9462 30.8108C24.8421 30.9149 24.7183 30.9972 24.582 31.0529C24.4458 31.1087 24.2998 31.1367 24.1526 31.1354C24.0054 31.1342 23.8599 31.1036 23.7246 31.0455C23.5894 30.9874 23.467 30.9029 23.3648 30.797C21.0778 28.5099 19.793 25.408 19.793 22.1737C19.793 18.9393 21.0778 15.8375 23.3648 13.5504C23.467 13.4445 23.5894 13.36 23.7246 13.3019C23.8599 13.2438 24.0054 13.2132 24.1526 13.212C24.2998 13.2107 24.4458 13.2387 24.582 13.2945C24.7183 13.3502 24.8421 13.4325 24.9462 13.5366C25.0503 13.6407 25.1326 13.7645 25.1883 13.9008C25.2441 14.037 25.2721 14.183 25.2709 14.3302C25.2696 14.4774 25.239 14.6229 25.1809 14.7582C25.1228 14.8934 25.0383 15.0158 24.9324 15.1181C24.0059 16.0446 23.2709 17.1446 22.7694 18.3552C22.268 19.5658 22.0099 20.8633 22.0099 22.1737C22.0099 23.4841 22.268 24.7816 22.7694 25.9922C23.2709 27.2028 24.0059 28.3028 24.9324 29.2293ZM40.6114 30.797C40.4023 30.999 40.1222 31.1107 39.8315 31.1082C39.5409 31.1057 39.2628 30.9891 39.0572 30.7835C38.8517 30.578 38.7351 30.2999 38.7325 30.0092C38.73 29.7185 38.8418 29.4384 39.0437 29.2293C39.9703 28.3028 40.7053 27.2028 41.2067 25.9922C41.7082 24.7816 41.9663 23.4841 41.9663 22.1737C41.9663 20.8633 41.7082 19.5658 41.2067 18.3552C40.7053 17.1446 39.9703 16.0446 39.0437 15.1181C38.9378 15.0158 38.8534 14.8934 38.7953 14.7582C38.7372 14.6229 38.7066 14.4774 38.7053 14.3302C38.704 14.183 38.7321 14.037 38.7878 13.9008C38.8436 13.7645 38.9259 13.6407 39.03 13.5366C39.1341 13.4325 39.2579 13.3502 39.3941 13.2945C39.5304 13.2387 39.6764 13.2107 39.8236 13.212C39.9708 13.2132 40.1163 13.2438 40.2515 13.3019C40.3868 13.36 40.5091 13.4445 40.6114 13.5504C42.8984 15.8375 44.1832 18.9393 44.1832 22.1737C44.1832 25.408 42.8984 28.5099 40.6114 30.797Z" fill="white" fill-opacity="0.16"/>
</g>
<g filter="url(#filter2_i_261_2660)">
<path d="M18.6797 51.0008H33.3686L33.0925 27.6076C34.4385 27.3329 35.6345 26.5681 36.4487 25.4617C37.2629 24.3552 37.6373 22.9858 37.4992 21.6191C37.3611 20.2523 36.7205 18.9854 35.7014 18.0642C34.6824 17.1429 33.3576 16.6328 31.9839 16.6328C30.6101 16.6328 29.2853 17.1429 28.2663 18.0642C27.2472 18.9854 26.6066 20.2523 26.4685 21.6191C26.3305 22.9858 26.7048 24.3552 27.519 25.4617C28.3332 26.5681 29.5292 27.3329 30.8752 27.6076V38.8053C30.8714 42.0386 29.5853 45.1383 27.299 47.4246C25.0127 49.7109 21.913 50.997 18.6797 51.0008Z" fill="white" fill-opacity="0.16"/>
</g>
</g>
<defs>
<filter id="filter0_bi_261_2660" x="-4.72266" y="-6" width="60.4492" height="63" filterUnits="userSpaceOnUse" color-interpolation-filters="sRGB">
<feFlood flood-opacity="0" result="BackgroundImageFix"/>
<feGaussianBlur in="BackgroundImageFix" stdDeviation="3"/>
<feComposite in2="SourceAlpha" operator="in" result="effect1_backgroundBlur_261_2660"/>
<feBlend mode="normal" in="SourceGraphic" in2="effect1_backgroundBlur_261_2660" result="shape"/>
<feColorMatrix in="SourceAlpha" type="matrix" values="0 0 0 0 0 0 0 0 0 0 0 0 0 0 0 0 0 0 127 0" result="hardAlpha"/>
<feOffset dy="1"/>
<feGaussianBlur stdDeviation="1.5"/>
<feComposite in2="hardAlpha" operator="arithmetic" k2="-1" k3="1"/>
<feColorMatrix type="matrix" values="0 0 0 0 1 0 0 0 0 1 0 0 0 0 1 0 0 0 0.4 0"/>
<feBlend mode="normal" in2="shape" result="effect2_innerShadow_261_2660"/>
</filter>
<filter id="filter1_i_261_2660" x="19.793" y="13.2119" width="24.3906" height="19.9238" filterUnits="userSpaceOnUse" color-interpolation-filters="sRGB">
<feFlood flood-opacity="0" result="BackgroundImageFix"/>
<feBlend mode="normal" in="SourceGraphic" in2="BackgroundImageFix" result="shape"/>
<feColorMatrix in="SourceAlpha" type="matrix" values="0 0 0 0 0 0 0 0 0 0 0 0 0 0 0 0 0 0 127 0" result="hardAlpha"/>
<feOffset dy="2"/>
<feGaussianBlur stdDeviation="1"/>
<feComposite in2="hardAlpha" operator="arithmetic" k2="-1" k3="1"/>
<feColorMatrix type="matrix" values="0 0 0 0 1 0 0 0 0 1 0 0 0 0 1 0 0 0 0.4 0"/>
<feBlend mode="normal" in2="shape" result="effect1_innerShadow_261_2660"/>
</filter>
<filter id="filter2_i_261_2660" x="18.6797" y="16.6328" width="18.8477" height="36.3682" filterUnits="userSpaceOnUse" color-interpolation-filters="sRGB">
<feFlood flood-opacity="0" result="BackgroundImageFix"/>
<feBlend mode="normal" in="SourceGraphic" in2="BackgroundImageFix" result="shape"/>
<feColorMatrix in="SourceAlpha" type="matrix" values="0 0 0 0 0 0 0 0 0 0 0 0 0 0 0 0 0 0 127 0" result="hardAlpha"/>
<feOffset dy="2"/>
<feGaussianBlur stdDeviation="1"/>
<feComposite in2="hardAlpha" operator="arithmetic" k2="-1" k3="1"/>
<feColorMatrix type="matrix" values="0 0 0 0 1 0 0 0 0 1 0 0 0 0 1 0 0 0 0.4 0"/>
<feBlend mode="normal" in2="shape" result="effect1_innerShadow_261_2660"/>
</filter>
<linearGradient id="paint0_linear_261_2660" x1="28.6563" y1="18.8486" x2="36.4922" y2="20.8383" gradientUnits="userSpaceOnUse">
<stop stop-color="#5AC3B1"/>
<stop offset="0.703125" stop-color="#339F8D"/>
</linearGradient>
<linearGradient id="paint1_linear_261_2660" x1="19.7891" y1="13.2119" x2="47.1105" y2="22.6523" gradientUnits="userSpaceOnUse">
<stop stop-color="#5AC3B1"/>
<stop offset="0.703125" stop-color="#339F8D"/>
</linearGradient>
<linearGradient id="paint2_linear_261_2660" x1="18.6797" y1="16.6328" x2="41.8635" y2="19.8612" gradientUnits="userSpaceOnUse">
<stop stop-color="#5AC3B1"/>
<stop offset="0.703125" stop-color="#339F8D"/>
</linearGradient>
<linearGradient id="paint3_linear_261_2660" x1="1.27734" y1="0" x2="58.6869" y2="13.8479" gradientUnits="userSpaceOnUse">
<stop stop-color="#83E9FF"/>
<stop offset="0.453125" stop-color="#85A0FF"/>
</linearGradient>
<linearGradient id="paint4_linear_261_2660" x1="2.79135" y1="2.31818" x2="49.7254" y2="2.31818" gradientUnits="userSpaceOnUse">
<stop stop-color="#3CDEB6"/>
<stop offset="0.65625" stop-color="#364AFF"/>
</linearGradient>
<clipPath id="clip0_261_2660">
<rect width="51" height="51" fill="white"/>
</clipPath>
</defs>
</svg>
